<svg width="223" height="208" viewBox="0 0 223 208" fill="none" xmlns="http://www.w3.org/2000/svg">
<rect width="223" height="208" fill="#F5F5F5"/>
<path d="M0 0H223V208H0V0Z" fill="#D9E4EC"/>
<path d="M141.616 105.936C139.152 105.936 137.92 102.464 137.92 95.52C137.92 92.496 138.144 89.248 138.592 85.776C139.04 82.192 139.712 78.328 140.608 74.184L108.184 85.272C106.728 85.272 106 84.992 106 84.432C106 83.648 106.952 82.64 108.856 81.408C110.536 80.064 111.824 79.336 112.72 79.224C115.968 78.104 119.944 76.816 124.648 75.36C129.464 73.792 135.008 72.056 141.28 70.152C141.504 66.456 142.512 61.192 144.304 54.36L131.704 58.728C125.656 60.856 121.68 61.92 119.776 61.92C118.432 61.92 117.76 61.528 117.76 60.744C117.76 58.504 122.8 56.152 132.88 53.688C139.04 52.232 143.464 50.944 146.152 49.824L150.352 35.376C152.368 28.768 154.44 24.568 156.568 22.776H158.92L151.528 47.136C152.76 47.024 154.216 46.856 155.896 46.632C157.688 46.296 159.648 45.848 161.776 45.288L171.856 42.768L178.576 23.952C182.496 13.984 185.464 9 187.48 9C188.936 9 189.72 9.504 189.832 10.512L189.496 10.848C187.032 14.992 183.168 24.848 177.904 40.416L186.976 38.736C188.88 38.288 190.56 38.008 192.016 37.896C193.584 37.672 194.928 37.56 196.048 37.56C197.84 37.56 198.736 37.84 198.736 38.4C198.736 38.624 198.12 39.016 196.888 39.576C191.064 41.592 184.344 43.608 176.728 45.624C176.28 47.192 175.72 49.208 175.048 51.672C174.376 54.024 173.536 56.768 172.528 59.904C173.648 59.68 175.328 59.288 177.568 58.728C179.92 58.056 182.888 57.16 186.472 56.04C192.744 54.136 197.28 53.184 200.08 53.184C201.536 53.184 202.264 53.408 202.264 53.856C202.264 55.088 197.896 56.712 189.16 58.728C182.216 60.408 176.448 62.48 171.856 64.944C171.296 67.632 170.848 70.208 170.512 72.672C170.288 75.024 170.176 77.32 170.176 79.56C170.176 87.4 172.08 92.664 175.888 95.352C175.44 97.144 174.432 98.04 172.864 98.04C172.304 98.04 171.688 97.872 171.016 97.536C166.536 95.408 164.296 89.864 164.296 80.904C164.296 75.976 164.856 71.328 165.976 66.96C163.4 67.632 160.376 68.472 156.904 69.48C153.544 70.488 149.736 71.72 145.48 73.176C144.024 79.112 143.296 84.936 143.296 90.648C143.296 92.552 143.352 94.512 143.464 96.528C143.688 98.544 144.024 100.616 144.472 102.744L144.64 103.248C144.64 105.04 143.632 105.936 141.616 105.936ZM146.824 68.472C149.064 67.912 151.808 67.128 155.056 66.12C158.416 65.112 162.336 63.88 166.816 62.424C167.152 60.632 167.656 58.448 168.328 55.872C169.112 53.296 170.064 50.328 171.184 46.968C166.704 46.968 159.76 48.872 150.352 52.68C149.232 56.04 148.056 61.304 146.824 68.472Z" fill="#14819F"/>
<path fill-rule="evenodd" clip-rule="evenodd" d="M151.528 47.136C151.87 47.1049 152.229 47.0695 152.605 47.0298C153.585 46.9265 154.682 46.7938 155.896 46.632C157.688 46.296 159.648 45.848 161.776 45.288L171.856 42.768L178.576 23.952C182.496 13.984 185.464 9 187.48 9C188.936 9 189.72 9.504 189.832 10.512L189.496 10.848C187.09 14.8949 183.348 24.3892 178.272 39.3309C178.15 39.6895 178.027 40.0512 177.904 40.416L186.976 38.736C188.88 38.288 190.56 38.008 192.016 37.896C193.584 37.672 194.928 37.56 196.048 37.56C197.84 37.56 198.736 37.84 198.736 38.4C198.736 38.624 198.12 39.016 196.888 39.576C191.064 41.592 184.344 43.608 176.728 45.624C176.28 47.192 175.72 49.208 175.048 51.672C174.455 53.7465 173.732 56.1259 172.878 58.8103C172.764 59.1694 172.647 59.534 172.528 59.904C172.856 59.8385 173.231 59.7585 173.655 59.6642C174.679 59.4362 175.983 59.1241 177.568 58.728C179.92 58.056 182.888 57.16 186.472 56.04C192.744 54.136 197.28 53.184 200.08 53.184C201.536 53.184 202.264 53.408 202.264 53.856C202.264 55.088 197.896 56.712 189.16 58.728C182.216 60.408 176.448 62.48 171.856 64.944C171.296 67.632 170.848 70.208 170.512 72.672C170.288 75.024 170.176 77.32 170.176 79.56C170.176 87.4 172.08 92.664 175.888 95.352C175.44 97.144 174.432 98.04 172.864 98.04C172.304 98.04 171.688 97.872 171.016 97.536C166.536 95.408 164.296 89.864 164.296 80.904C164.296 76.3892 164.766 72.1094 165.706 68.0646C165.792 67.6944 165.882 67.3262 165.976 66.96C165.617 67.0537 165.249 67.1507 164.872 67.2509C162.548 67.8695 159.892 68.6126 156.904 69.48C153.544 70.488 149.736 71.72 145.48 73.176C144.024 79.112 143.296 84.936 143.296 90.648C143.296 92.552 143.352 94.512 143.464 96.528C143.688 98.544 144.024 100.616 144.472 102.744L144.64 103.248C144.64 105.04 143.632 105.936 141.616 105.936C139.152 105.936 137.92 102.464 137.92 95.52C137.92 92.496 138.144 89.248 138.592 85.776C138.999 82.5226 139.59 79.0385 140.366 75.3237C140.445 74.9462 140.525 74.5663 140.608 74.184L108.184 85.272C106.728 85.272 106 84.992 106 84.432C106 83.648 106.952 82.64 108.856 81.408C110.536 80.064 111.824 79.336 112.72 79.224C115.968 78.104 119.944 76.816 124.648 75.36C129.464 73.792 135.008 72.056 141.28 70.152C141.491 66.6685 142.399 61.7921 144.003 55.5228C144.101 55.1404 144.201 54.7528 144.304 54.36L131.704 58.728C125.656 60.856 121.68 61.92 119.776 61.92C118.432 61.92 117.76 61.528 117.76 60.744C117.76 58.504 122.8 56.152 132.88 53.688C139.04 52.232 143.464 50.944 146.152 49.824L150.352 35.376C152.368 28.768 154.44 24.568 156.568 22.776C156.568 22.776 158.001 22.776 158.92 22.776C156.033 32.2892 151.528 47.136 151.528 47.136ZM145.327 49.0796L149.395 35.0842C150.413 31.7503 151.453 28.993 152.521 26.8276C153.582 24.6771 154.706 23.0368 155.924 22.0111C155.924 22.0111 156.083 21.8523 156.203 21.776C156.683 21.4712 157.651 21.2735 158.16 21.528C159.16 22.028 158.92 22.776 158.92 22.776C156.577 31.8416 152.921 45.99 152.921 45.99C153.773 45.896 154.712 45.7808 155.738 45.6443C157.495 45.314 159.422 44.8733 161.522 44.3209L161.533 44.3178L171.094 41.9277L177.64 23.6008L177.645 23.586C179.612 18.5862 181.357 14.7886 182.883 12.2263C183.644 10.9486 184.375 9.93439 185.082 9.22739C185.763 8.54672 186.571 8 187.48 8C188.301 8 189.081 8.1381 189.701 8.53682C190.371 8.96743 190.74 9.6283 190.826 10.4016L190.879 10.8793L190.293 11.4655C187.974 15.4197 184.346 24.599 179.399 39.1221L186.77 37.7571C188.686 37.3074 190.399 37.0196 191.907 36.9015C193.491 36.6763 194.874 36.56 196.048 36.56C196.971 36.56 197.766 36.6292 198.362 36.8155C198.903 36.9845 199.736 37.4182 199.736 38.4C199.736 38.881 199.436 39.1979 199.328 39.3066C199.176 39.4582 198.991 39.591 198.811 39.7057C198.443 39.9396 197.931 40.2004 197.302 40.4864L197.259 40.5057L197.215 40.521C191.503 42.4982 184.942 44.4725 177.534 46.4446C177.116 47.9209 176.608 49.7508 176.013 51.9351L176.01 51.9467C175.455 53.8887 174.787 56.0931 174.007 58.5594C174.916 58.3507 176.016 58.0851 177.309 57.7619C179.648 57.0935 182.602 56.2016 186.174 55.0855L186.182 55.0831C192.456 53.1785 197.117 52.184 200.08 52.184C200.834 52.184 201.502 52.2392 202.012 52.3962C202.459 52.5339 203.264 52.9213 203.264 53.856C203.264 54.3183 203.058 54.6959 202.832 54.9709C202.607 55.2452 202.311 55.482 201.992 55.6905C201.353 56.1081 200.453 56.5202 199.336 56.9353C197.091 57.77 193.767 58.6911 189.39 59.7012C182.711 61.3173 177.168 63.2903 172.74 65.6072C172.23 68.1015 171.819 70.4946 171.506 72.7869C171.286 75.102 171.176 77.3597 171.176 79.56C171.176 87.2961 173.062 92.1332 176.465 94.535L177.024 94.93L176.858 95.5945C176.603 96.6155 176.161 97.4926 175.46 98.1154C174.744 98.7522 173.851 99.04 172.864 99.04C172.109 99.04 171.342 98.8154 170.58 98.436C165.538 96.0364 163.296 89.9238 163.296 80.904C163.296 76.5104 163.734 72.3265 164.615 68.3548C162.425 68.9425 159.949 69.6372 157.187 70.4393C153.98 71.4014 150.359 72.5698 146.323 73.9449C144.97 79.6244 144.296 85.1915 144.296 90.648C144.296 92.5238 144.351 94.456 144.461 96.4449C144.679 98.4005 145.005 100.413 145.439 102.482L145.64 103.086V103.248C145.64 104.331 145.33 105.317 144.548 106.011C143.789 106.686 142.751 106.936 141.616 106.936C140.738 106.936 139.956 106.616 139.314 106.014C138.696 105.433 138.24 104.621 137.902 103.666C137.227 101.766 136.92 99.0237 136.92 95.52C136.92 92.4477 137.147 89.1572 137.6 85.6499C137.989 82.5369 138.545 79.2199 139.267 75.6995L108.35 86.272H108.184C107.421 86.272 106.726 86.2026 106.187 85.9953C105.91 85.8889 105.614 85.7232 105.381 85.4544C105.131 85.1661 105 84.8106 105 84.432C105 83.6491 105.459 82.9607 105.987 82.4014C106.533 81.8227 107.308 81.2217 108.27 80.5958C109.12 79.9186 109.894 79.3766 110.59 78.9834C111.243 78.6142 111.882 78.3444 112.483 78.2478C115.727 77.131 119.681 75.8506 124.346 74.4068C128.999 72.892 134.327 71.2213 140.332 69.3951C140.608 66.01 141.461 61.5095 142.871 55.9151L132.036 59.6713L132.035 59.6717C128.999 60.7399 126.467 61.5469 124.445 62.088C122.446 62.6227 120.868 62.92 119.776 62.92C119.04 62.92 118.323 62.8184 117.76 62.4898C117.114 62.1129 116.76 61.4883 116.76 60.744C116.76 59.7836 117.302 58.9687 118.032 58.3038C118.768 57.6326 119.816 57.0012 121.117 56.3938C123.727 55.1757 127.583 53.9533 132.643 52.7166L132.65 52.7148C138.469 51.3393 142.681 50.1262 145.327 49.0796ZM154.76 65.1649L154.769 65.1621C157.979 64.1992 161.704 63.0303 165.946 61.6551C166.283 59.9509 166.756 57.938 167.36 55.6196L167.365 55.6001L167.371 55.5808C168.05 53.3523 168.852 50.8342 169.779 48.027C165.557 48.3624 159.373 50.1328 151.158 53.4331C150.185 56.4842 149.156 61.0356 148.076 67.1148C149.989 66.604 152.216 65.9544 154.76 65.1649ZM147.886 68.1997C147.52 68.2957 147.166 68.3865 146.824 68.472C146.887 68.1075 146.949 67.7479 147.012 67.3932C148.175 60.7735 149.289 55.8691 150.352 52.68C159.044 49.1616 165.633 47.2686 170.119 47.001C170.488 46.979 170.843 46.968 171.184 46.968C171.071 47.3065 170.96 47.6411 170.851 47.9716C169.874 50.9221 169.033 53.5555 168.328 55.872C167.656 58.448 167.152 60.632 166.816 62.424C162.336 63.88 158.416 65.112 155.056 66.12C152.304 66.974 149.914 67.6672 147.886 68.1997Z" fill="#14819F"/>
<path d="M50.616 141.936C48.152 141.936 46.92 138.464 46.92 131.52C46.92 128.496 47.144 125.248 47.592 121.776C48.04 118.192 48.712 114.328 49.608 110.184L17.184 121.272C15.728 121.272 15 120.992 15 120.432C15 119.648 15.952 118.64 17.856 117.408C19.536 116.064 20.824 115.336 21.72 115.224C24.968 114.104 28.944 112.816 33.648 111.36C38.464 109.792 44.008 108.056 50.28 106.152C50.504 102.456 51.512 97.192 53.304 90.36L40.704 94.728C34.656 96.856 30.68 97.92 28.776 97.92C27.432 97.92 26.76 97.528 26.76 96.744C26.76 94.504 31.8 92.152 41.88 89.688C48.04 88.232 52.464 86.944 55.152 85.824L59.352 71.376C61.368 64.768 63.44 60.568 65.568 58.776H67.92L60.528 83.136C61.76 83.024 63.216 82.856 64.896 82.632C66.688 82.296 68.648 81.848 70.776 81.288L80.856 78.768L87.576 59.952C91.496 49.984 94.464 45 96.48 45C97.936 45 98.72 45.504 98.832 46.512L98.496 46.848C96.032 50.992 92.168 60.848 86.904 76.416L95.976 74.736C97.88 74.288 99.56 74.008 101.016 73.896C102.584 73.672 103.928 73.56 105.048 73.56C106.84 73.56 107.736 73.84 107.736 74.4C107.736 74.624 107.12 75.016 105.888 75.576C100.064 77.592 93.344 79.608 85.728 81.624C85.28 83.192 84.72 85.208 84.048 87.672C83.376 90.024 82.536 92.768 81.528 95.904C82.648 95.68 84.328 95.288 86.568 94.728C88.92 94.056 91.888 93.16 95.472 92.04C101.744 90.136 106.28 89.184 109.08 89.184C110.536 89.184 111.264 89.408 111.264 89.856C111.264 91.088 106.896 92.712 98.16 94.728C91.216 96.408 85.448 98.48 80.856 100.944C80.296 103.632 79.848 106.208 79.512 108.672C79.288 111.024 79.176 113.32 79.176 115.56C79.176 123.4 81.08 128.664 84.888 131.352C84.44 133.144 83.432 134.04 81.864 134.04C81.304 134.04 80.688 133.872 80.016 133.536C75.536 131.408 73.296 125.864 73.296 116.904C73.296 111.976 73.856 107.328 74.976 102.96C72.4 103.632 69.376 104.472 65.904 105.48C62.544 106.488 58.736 107.72 54.48 109.176C53.024 115.112 52.296 120.936 52.296 126.648C52.296 128.552 52.352 130.512 52.464 132.528C52.688 134.544 53.024 136.616 53.472 138.744L53.64 139.248C53.64 141.04 52.632 141.936 50.616 141.936ZM55.824 104.472C58.064 103.912 60.808 103.128 64.056 102.12C67.416 101.112 71.336 99.88 75.816 98.424C76.152 96.632 76.656 94.448 77.328 91.872C78.112 89.296 79.064 86.328 80.184 82.968C75.704 82.968 68.76 84.872 59.352 88.68C58.232 92.04 57.056 97.304 55.824 104.472Z" fill="#14819F"/>
<path fill-rule="evenodd" clip-rule="evenodd" d="M60.528 83.136C60.8698 83.1049 61.2289 83.0695 61.6052 83.0298C62.5852 82.9265 63.6821 82.7938 64.896 82.632C66.688 82.296 68.648 81.848 70.776 81.288L80.856 78.768L87.576 59.952C91.496 49.984 94.464 45 96.48 45C97.936 45 98.72 45.504 98.832 46.512L98.496 46.848C96.0898 50.8949 92.3483 60.3892 87.2718 75.3309C87.15 75.6895 87.0274 76.0512 86.904 76.416L95.976 74.736C97.88 74.288 99.56 74.008 101.016 73.896C102.584 73.672 103.928 73.56 105.048 73.56C106.84 73.56 107.736 73.84 107.736 74.4C107.736 74.624 107.12 75.016 105.888 75.576C100.064 77.592 93.344 79.608 85.728 81.624C85.28 83.192 84.72 85.208 84.048 87.672C83.4553 89.7465 82.7319 92.1259 81.8778 94.8103C81.7635 95.1694 81.6469 95.534 81.528 95.904C81.8557 95.8385 82.2314 95.7585 82.655 95.6642C83.6791 95.4362 84.9835 95.1241 86.568 94.728C88.92 94.056 91.888 93.16 95.472 92.04C101.744 90.136 106.28 89.184 109.08 89.184C110.536 89.184 111.264 89.408 111.264 89.856C111.264 91.088 106.896 92.712 98.16 94.728C91.216 96.408 85.448 98.48 80.856 100.944C80.296 103.632 79.848 106.208 79.512 108.672C79.288 111.024 79.176 113.32 79.176 115.56C79.176 123.4 81.08 128.664 84.888 131.352C84.44 133.144 83.432 134.04 81.864 134.04C81.304 134.04 80.688 133.872 80.016 133.536C75.536 131.408 73.296 125.864 73.296 116.904C73.296 112.389 73.766 108.109 74.7061 104.065C74.7921 103.694 74.8821 103.326 74.976 102.96C74.6168 103.054 74.2488 103.151 73.8722 103.251C71.5479 103.87 68.8918 104.613 65.904 105.48C62.544 106.488 58.736 107.72 54.48 109.176C53.024 115.112 52.296 120.936 52.296 126.648C52.296 128.552 52.352 130.512 52.464 132.528C52.688 134.544 53.024 136.616 53.472 138.744L53.64 139.248C53.64 141.04 52.632 141.936 50.616 141.936C48.152 141.936 46.92 138.464 46.92 131.52C46.92 128.496 47.144 125.248 47.592 121.776C47.9987 118.523 48.5899 115.039 49.3658 111.324C49.4446 110.946 49.5253 110.566 49.608 110.184L17.184 121.272C15.728 121.272 15 120.992 15 120.432C15 119.648 15.952 118.64 17.856 117.408C19.536 116.064 20.824 115.336 21.72 115.224C24.968 114.104 28.944 112.816 33.648 111.36C38.464 109.792 44.008 108.056 50.28 106.152C50.4911 102.668 51.3987 97.7921 53.0027 91.5228C53.1005 91.1404 53.201 90.7528 53.304 90.36L40.704 94.728C34.656 96.856 30.68 97.92 28.776 97.92C27.432 97.92 26.76 97.528 26.76 96.744C26.76 94.504 31.8 92.152 41.88 89.688C48.04 88.232 52.464 86.944 55.152 85.824L59.352 71.376C61.368 64.768 63.44 60.568 65.568 58.776C65.568 58.776 67.0015 58.776 67.92 58.776C65.0332 68.2892 60.528 83.136 60.528 83.136ZM54.327 85.0796L58.3954 71.0842C59.4126 67.7503 60.4529 64.993 61.5212 62.8276C62.5821 60.6771 63.7059 59.0368 64.9239 58.0111C64.9239 58.0111 65.0827 57.8523 65.203 57.776C65.6835 57.4712 66.6511 57.2735 67.16 57.528C68.16 58.028 67.92 58.776 67.92 58.776C65.5772 67.8416 61.9208 81.99 61.9208 81.99C62.7734 81.896 63.7122 81.7808 64.7376 81.6443C66.4948 81.314 68.4225 80.8733 70.5215 80.3209L70.5334 80.3178L80.0943 77.9277L86.6396 59.6008L86.6454 59.586C88.6116 54.5862 90.357 50.7886 91.8828 48.2263C92.6437 46.9486 93.3754 45.9344 94.0824 45.2274C94.7631 44.5467 95.571 44 96.48 44C97.3006 44 98.0805 44.1381 98.7008 44.5368C99.3706 44.9674 99.74 45.6283 99.8259 46.4016L99.879 46.8793L99.2927 47.4655C96.9742 51.4197 93.3456 60.599 88.3991 75.1221L95.7704 73.7571C97.6855 73.3074 99.3995 73.0196 100.907 72.9015C102.491 72.6763 103.874 72.56 105.048 72.56C105.971 72.56 106.766 72.6292 107.362 72.8155C107.903 72.9845 108.736 73.4182 108.736 74.4C108.736 74.881 108.436 75.1979 108.328 75.3066C108.176 75.4582 107.991 75.591 107.811 75.7057C107.443 75.9396 106.931 76.2004 106.302 76.4864L106.259 76.5057L106.215 76.521C100.503 78.4982 93.9422 80.4725 86.5342 82.4446C86.1156 83.9209 85.6085 85.7508 85.0128 87.9351L85.0096 87.9467C84.4548 89.8887 83.7869 92.0931 83.0065 94.5594C83.9159 94.3507 85.0162 94.0851 86.3094 93.7619C88.648 93.0935 91.6021 92.2016 95.1737 91.0855L95.1815 91.0831C101.456 89.1785 106.117 88.184 109.08 88.184C109.834 88.184 110.502 88.2392 111.012 88.3962C111.459 88.5339 112.264 88.9213 112.264 89.856C112.264 90.3183 112.058 90.6959 111.832 90.9709C111.607 91.2452 111.311 91.482 110.992 91.6905C110.353 92.1081 109.453 92.5202 108.336 92.9353C106.091 93.77 102.767 94.6911 98.39 95.7012C91.7113 97.3173 86.1677 99.2903 81.7402 101.607C81.2301 104.101 80.8187 106.495 80.5056 108.787C80.2857 111.102 80.176 113.36 80.176 115.56C80.176 123.296 82.0621 128.133 85.4647 130.535L86.0243 130.93L85.8582 131.595C85.6029 132.616 85.1611 133.493 84.4604 134.115C83.744 134.752 82.8506 135.04 81.864 135.04C81.1088 135.04 80.3419 134.815 79.58 134.436C74.5378 132.036 72.296 125.924 72.296 116.904C72.296 112.51 72.7344 108.327 73.6148 104.355C71.425 104.943 68.9492 105.637 66.1865 106.439C62.9797 107.401 59.3588 108.57 55.3229 109.945C53.9704 115.624 53.296 121.192 53.296 126.648C53.296 128.524 53.3509 130.456 53.4609 132.445C53.6792 134.4 54.0049 136.413 54.4388 138.482L54.64 139.086V139.248C54.64 140.331 54.3301 141.317 53.5484 142.011C52.7891 142.686 51.751 142.936 50.616 142.936C49.7375 142.936 48.9558 142.616 48.3143 142.014C47.6956 141.433 47.2404 140.621 46.9016 139.666C46.2273 137.766 45.92 135.024 45.92 131.52C45.92 128.448 46.1475 125.157 46.6 121.65C46.9892 118.537 47.5451 115.22 48.2668 111.7L17.3503 122.272H17.184C16.4208 122.272 15.7258 122.203 15.187 121.995C14.9102 121.889 14.6138 121.723 14.3808 121.454C14.1309 121.166 14 120.811 14 120.432C14 119.649 14.4587 118.961 14.987 118.401C15.5335 117.823 16.3076 117.222 17.2705 116.596C18.1199 115.919 18.8944 115.377 19.5899 114.983C20.2433 114.614 20.882 114.344 21.4835 114.248C24.7266 113.131 28.6813 111.851 33.3456 110.407C37.9985 108.892 43.3274 107.221 49.3316 105.395C49.6082 102.01 50.4609 97.5095 51.8713 91.9151L41.0359 95.6713L41.0349 95.6717C37.9989 96.7399 35.4667 97.5469 33.4445 98.088C31.4464 98.6227 29.8683 98.92 28.776 98.92C28.0395 98.92 27.3234 98.8184 26.7601 98.4898C26.114 98.1129 25.76 97.4883 25.76 96.744C25.76 95.7836 26.3017 94.9687 27.0315 94.3038C27.7682 93.6326 28.8156 93.0012 30.1171 92.3938C32.7274 91.1757 36.5834 89.9533 41.6425 88.7166L41.65 88.7148C47.4694 87.3393 51.6813 86.1262 54.327 85.0796ZM63.7596 101.165L63.7686 101.162C66.9786 100.199 70.7041 99.0303 74.9459 97.6551C75.2834 95.9509 75.7556 93.938 76.3604 91.6196L76.3655 91.6001L76.3713 91.5808C77.0496 89.3523 77.8523 86.8342 78.7791 84.027C74.5574 84.3624 68.373 86.1328 60.1582 89.4331C59.1847 92.4842 58.1559 97.0356 57.0762 103.115C58.9886 102.604 61.2158 101.954 63.7596 101.165ZM56.8858 104.2C56.5201 104.296 56.1662 104.386 55.824 104.472C55.8867 104.107 55.9492 103.748 56.0115 103.393C57.1755 96.7735 58.289 91.8691 59.352 88.68C68.0445 85.1616 74.6335 83.2686 79.119 83.001C79.4883 82.979 79.8433 82.968 80.184 82.968C80.0712 83.3065 79.96 83.6411 79.8506 83.9716C78.8739 86.9221 78.033 89.5555 77.328 91.872C76.656 94.448 76.152 96.632 75.816 98.424C71.336 99.88 67.416 101.112 64.056 102.12C61.3042 102.974 58.9141 103.667 56.8858 104.2Z" fill="#14819F"/>
<path d="M92.616 196.936C90.152 196.936 88.92 193.464 88.92 186.52C88.92 183.496 89.144 180.248 89.592 176.776C90.04 173.192 90.712 169.328 91.608 165.184L59.184 176.272C57.728 176.272 57 175.992 57 175.432C57 174.648 57.952 173.64 59.856 172.408C61.536 171.064 62.824 170.336 63.72 170.224C66.968 169.104 70.944 167.816 75.648 166.36C80.464 164.792 86.008 163.056 92.28 161.152C92.504 157.456 93.512 152.192 95.304 145.36L82.704 149.728C76.656 151.856 72.68 152.92 70.776 152.92C69.432 152.92 68.76 152.528 68.76 151.744C68.76 149.504 73.8 147.152 83.88 144.688C90.04 143.232 94.464 141.944 97.152 140.824L101.352 126.376C103.368 119.768 105.44 115.568 107.568 113.776H109.92L102.528 138.136C103.76 138.024 105.216 137.856 106.896 137.632C108.688 137.296 110.648 136.848 112.776 136.288L122.856 133.768L129.576 114.952C133.496 104.984 136.464 100 138.48 100C139.936 100 140.72 100.504 140.832 101.512L140.496 101.848C138.032 105.992 134.168 115.848 128.904 131.416L137.976 129.736C139.88 129.288 141.56 129.008 143.016 128.896C144.584 128.672 145.928 128.56 147.048 128.56C148.84 128.56 149.736 128.84 149.736 129.4C149.736 129.624 149.12 130.016 147.888 130.576C142.064 132.592 135.344 134.608 127.728 136.624C127.28 138.192 126.72 140.208 126.048 142.672C125.376 145.024 124.536 147.768 123.528 150.904C124.648 150.68 126.328 150.288 128.568 149.728C130.92 149.056 133.888 148.16 137.472 147.04C143.744 145.136 148.28 144.184 151.08 144.184C152.536 144.184 153.264 144.408 153.264 144.856C153.264 146.088 148.896 147.712 140.16 149.728C133.216 151.408 127.448 153.48 122.856 155.944C122.296 158.632 121.848 161.208 121.512 163.672C121.288 166.024 121.176 168.32 121.176 170.56C121.176 178.4 123.08 183.664 126.888 186.352C126.44 188.144 125.432 189.04 123.864 189.04C123.304 189.04 122.688 188.872 122.016 188.536C117.536 186.408 115.296 180.864 115.296 171.904C115.296 166.976 115.856 162.328 116.976 157.96C114.4 158.632 111.376 159.472 107.904 160.48C104.544 161.488 100.736 162.72 96.48 164.176C95.024 170.112 94.296 175.936 94.296 181.648C94.296 183.552 94.352 185.512 94.464 187.528C94.688 189.544 95.024 191.616 95.472 193.744L95.64 194.248C95.64 196.04 94.632 196.936 92.616 196.936ZM97.824 159.472C100.064 158.912 102.808 158.128 106.056 157.12C109.416 156.112 113.336 154.88 117.816 153.424C118.152 151.632 118.656 149.448 119.328 146.872C120.112 144.296 121.064 141.328 122.184 137.968C117.704 137.968 110.76 139.872 101.352 143.68C100.232 147.04 99.056 152.304 97.824 159.472Z" fill="#14819F"/>
<path fill-rule="evenodd" clip-rule="evenodd" d="M102.528 138.136C102.87 138.105 103.229 138.07 103.605 138.03C104.585 137.926 105.682 137.794 106.896 137.632C108.688 137.296 110.648 136.848 112.776 136.288L122.856 133.768L129.576 114.952C133.496 104.984 136.464 100 138.48 100C139.936 100 140.72 100.504 140.832 101.512L140.496 101.848C138.09 105.895 134.348 115.389 129.272 130.331C129.15 130.689 129.027 131.051 128.904 131.416L137.976 129.736C139.88 129.288 141.56 129.008 143.016 128.896C144.584 128.672 145.928 128.56 147.048 128.56C148.84 128.56 149.736 128.84 149.736 129.4C149.736 129.624 149.12 130.016 147.888 130.576C142.064 132.592 135.344 134.608 127.728 136.624C127.28 138.192 126.72 140.208 126.048 142.672C125.455 144.746 124.732 147.126 123.878 149.81C123.764 150.169 123.647 150.534 123.528 150.904C123.856 150.838 124.231 150.759 124.655 150.664C125.679 150.436 126.983 150.124 128.568 149.728C130.92 149.056 133.888 148.16 137.472 147.04C143.744 145.136 148.28 144.184 151.08 144.184C152.536 144.184 153.264 144.408 153.264 144.856C153.264 146.088 148.896 147.712 140.16 149.728C133.216 151.408 127.448 153.48 122.856 155.944C122.296 158.632 121.848 161.208 121.512 163.672C121.288 166.024 121.176 168.32 121.176 170.56C121.176 178.4 123.08 183.664 126.888 186.352C126.44 188.144 125.432 189.04 123.864 189.04C123.304 189.04 122.688 188.872 122.016 188.536C117.536 186.408 115.296 180.864 115.296 171.904C115.296 167.389 115.766 163.109 116.706 159.065C116.792 158.694 116.882 158.326 116.976 157.96C116.617 158.054 116.249 158.151 115.872 158.251C113.548 158.87 110.892 159.613 107.904 160.48C104.544 161.488 100.736 162.72 96.48 164.176C95.024 170.112 94.296 175.936 94.296 181.648C94.296 183.552 94.352 185.512 94.464 187.528C94.688 189.544 95.024 191.616 95.472 193.744L95.64 194.248C95.64 196.04 94.632 196.936 92.616 196.936C90.152 196.936 88.92 193.464 88.92 186.52C88.92 183.496 89.144 180.248 89.592 176.776C89.9987 173.523 90.5899 170.039 91.3658 166.324C91.4446 165.946 91.5253 165.566 91.608 165.184L59.184 176.272C57.728 176.272 57 175.992 57 175.432C57 174.648 57.952 173.64 59.856 172.408C61.536 171.064 62.824 170.336 63.72 170.224C66.968 169.104 70.944 167.816 75.648 166.36C80.464 164.792 86.008 163.056 92.28 161.152C92.4911 157.668 93.3987 152.792 95.0027 146.523C95.1005 146.14 95.201 145.753 95.304 145.36L82.704 149.728C76.656 151.856 72.68 152.92 70.776 152.92C69.432 152.92 68.76 152.528 68.76 151.744C68.76 149.504 73.8 147.152 83.88 144.688C90.04 143.232 94.464 141.944 97.152 140.824L101.352 126.376C103.368 119.768 105.44 115.568 107.568 113.776C107.568 113.776 109.001 113.776 109.92 113.776C107.033 123.289 102.528 138.136 102.528 138.136ZM96.327 140.08L100.395 126.084C101.413 122.75 102.453 119.993 103.521 117.828C104.582 115.677 105.706 114.037 106.924 113.011C106.924 113.011 107.083 112.852 107.203 112.776C107.683 112.471 108.651 112.274 109.16 112.528C110.16 113.028 109.92 113.776 109.92 113.776C107.577 122.842 103.921 136.99 103.921 136.99C104.773 136.896 105.712 136.781 106.738 136.644C108.495 136.314 110.422 135.873 112.522 135.321L112.533 135.318L122.094 132.928L128.64 114.601L128.645 114.586C130.612 109.586 132.357 105.789 133.883 103.226C134.644 101.949 135.375 100.934 136.082 100.227C136.763 99.5467 137.571 99 138.48 99C139.301 99 140.081 99.1381 140.701 99.5368C141.371 99.9674 141.74 100.628 141.826 101.402L141.879 101.879L141.293 102.466C138.974 106.42 135.346 115.599 130.399 130.122L137.77 128.757C139.686 128.307 141.399 128.02 142.907 127.901C144.491 127.676 145.874 127.56 147.048 127.56C147.971 127.56 148.766 127.629 149.362 127.816C149.903 127.985 150.736 128.418 150.736 129.4C150.736 129.881 150.436 130.198 150.328 130.307C150.176 130.458 149.991 130.591 149.811 130.706C149.443 130.94 148.931 131.2 148.302 131.486L148.259 131.506L148.215 131.521C142.503 133.498 135.942 135.473 128.534 137.445C128.116 138.921 127.608 140.751 127.013 142.935L127.01 142.947C126.455 144.889 125.787 147.093 125.007 149.559C125.916 149.351 127.016 149.085 128.309 148.762C130.648 148.093 133.602 147.202 137.174 146.086L137.182 146.083C143.456 144.178 148.117 143.184 151.08 143.184C151.834 143.184 152.502 143.239 153.012 143.396C153.459 143.534 154.264 143.921 154.264 144.856C154.264 145.318 154.058 145.696 153.832 145.971C153.607 146.245 153.311 146.482 152.992 146.69C152.353 147.108 151.453 147.52 150.336 147.935C148.091 148.77 144.767 149.691 140.39 150.701C133.711 152.317 128.168 154.29 123.74 156.607C123.23 159.101 122.819 161.495 122.506 163.787C122.286 166.102 122.176 168.36 122.176 170.56C122.176 178.296 124.062 183.133 127.465 185.535L128.024 185.93L127.858 186.595C127.603 187.616 127.161 188.493 126.46 189.115C125.744 189.752 124.851 190.04 123.864 190.04C123.109 190.04 122.342 189.815 121.58 189.436C116.538 187.036 114.296 180.924 114.296 171.904C114.296 167.51 114.734 163.327 115.615 159.355C113.425 159.943 110.949 160.637 108.187 161.439C104.98 162.401 101.359 163.57 97.3229 164.945C95.9704 170.624 95.296 176.192 95.296 181.648C95.296 183.524 95.3509 185.456 95.4609 187.445C95.6792 189.4 96.0049 191.413 96.4388 193.482L96.64 194.086V194.248C96.64 195.331 96.3301 196.317 95.5484 197.011C94.7891 197.686 93.751 197.936 92.616 197.936C91.7375 197.936 90.9558 197.616 90.3143 197.014C89.6956 196.433 89.2404 195.621 88.9016 194.666C88.2273 192.766 87.92 190.024 87.92 186.52C87.92 183.448 88.1475 180.157 88.6 176.65C88.9892 173.537 89.5451 170.22 90.2668 166.7L59.3503 177.272H59.184C58.4208 177.272 57.7258 177.203 57.187 176.995C56.9102 176.889 56.6138 176.723 56.3808 176.454C56.1309 176.166 56 175.811 56 175.432C56 174.649 56.4587 173.961 56.987 173.401C57.5335 172.823 58.3076 172.222 59.2705 171.596C60.1199 170.919 60.8944 170.377 61.5899 169.983C62.2433 169.614 62.882 169.344 63.4835 169.248C66.7266 168.131 70.6813 166.851 75.3456 165.407C79.9985 163.892 85.3274 162.221 91.3316 160.395C91.6082 157.01 92.4609 152.509 93.8713 146.915L83.0359 150.671L83.0349 150.672C79.9989 151.74 77.4667 152.547 75.4445 153.088C73.4464 153.623 71.8683 153.92 70.776 153.92C70.0395 153.92 69.3234 153.818 68.7601 153.49C68.114 153.113 67.76 152.488 67.76 151.744C67.76 150.784 68.3017 149.969 69.0315 149.304C69.7682 148.633 70.8156 148.001 72.1171 147.394C74.7274 146.176 78.5834 144.953 83.6425 143.717L83.65 143.715C89.4694 142.339 93.6813 141.126 96.327 140.08ZM105.76 156.165L105.769 156.162C108.979 155.199 112.704 154.03 116.946 152.655C117.283 150.951 117.756 148.938 118.36 146.62L118.365 146.6L118.371 146.581C119.05 144.352 119.852 141.834 120.779 139.027C116.557 139.362 110.373 141.133 102.158 144.433C101.185 147.484 100.156 152.036 99.0762 158.115C100.989 157.604 103.216 156.954 105.76 156.165ZM98.8858 159.2C98.5201 159.296 98.1662 159.386 97.824 159.472C97.8867 159.107 97.9492 158.748 98.0115 158.393C99.1755 151.774 100.289 146.869 101.352 143.68C110.044 140.162 116.633 138.269 121.119 138.001C121.488 137.979 121.843 137.968 122.184 137.968C122.071 138.307 121.96 138.641 121.851 138.972C120.874 141.922 120.033 144.556 119.328 146.872C118.656 149.448 118.152 151.632 117.816 153.424C113.336 154.88 109.416 156.112 106.056 157.12C103.304 157.974 100.914 158.667 98.8858 159.2Z" fill="#14819F"/>
</svg>
