<svg width="190" height="190" viewBox="0 0 190 190" fill="none" xmlns="http://www.w3.org/2000/svg">
<path d="M127.616 97.936C125.152 97.936 123.92 94.464 123.92 87.52C123.92 84.496 124.144 81.248 124.592 77.776C125.04 74.192 125.712 70.328 126.608 66.184L94.184 77.272C92.728 77.272 92 76.992 92 76.432C92 75.648 92.952 74.64 94.856 73.408C96.536 72.064 97.824 71.336 98.72 71.224C101.968 70.104 105.944 68.816 110.648 67.36C115.464 65.792 121.008 64.056 127.28 62.152C127.504 58.456 128.512 53.192 130.304 46.36L117.704 50.728C111.656 52.856 107.68 53.92 105.776 53.92C104.432 53.92 103.76 53.528 103.76 52.744C103.76 50.504 108.8 48.152 118.88 45.688C125.04 44.232 129.464 42.944 132.152 41.824L136.352 27.376C138.368 20.768 140.44 16.568 142.568 14.776H144.92L137.528 39.136C138.76 39.024 140.216 38.856 141.896 38.632C143.688 38.296 145.648 37.848 147.776 37.288L157.856 34.768L164.576 15.952C168.496 5.984 171.464 1 173.48 1C174.936 1 175.72 1.504 175.832 2.512L175.496 2.848C173.032 6.992 169.168 16.848 163.904 32.416L172.976 30.736C174.88 30.288 176.56 30.008 178.016 29.896C179.584 29.672 180.928 29.56 182.048 29.56C183.84 29.56 184.736 29.84 184.736 30.4C184.736 30.624 184.12 31.016 182.888 31.576C177.064 33.592 170.344 35.608 162.728 37.624C162.28 39.192 161.72 41.208 161.048 43.672C160.376 46.024 159.536 48.768 158.528 51.904C159.648 51.68 161.328 51.288 163.568 50.728C165.92 50.056 168.888 49.16 172.472 48.04C178.744 46.136 183.28 45.184 186.08 45.184C187.536 45.184 188.264 45.408 188.264 45.856C188.264 47.088 183.896 48.712 175.16 50.728C168.216 52.408 162.448 54.48 157.856 56.944C157.296 59.632 156.848 62.208 156.512 64.672C156.288 67.024 156.176 69.32 156.176 71.56C156.176 79.4 158.08 84.664 161.888 87.352C161.44 89.144 160.432 90.04 158.864 90.04C158.304 90.04 157.688 89.872 157.016 89.536C152.536 87.408 150.296 81.864 150.296 72.904C150.296 67.976 150.856 63.328 151.976 58.96C149.4 59.632 146.376 60.472 142.904 61.48C139.544 62.488 135.736 63.72 131.48 65.176C130.024 71.112 129.296 76.936 129.296 82.648C129.296 84.552 129.352 86.512 129.464 88.528C129.688 90.544 130.024 92.616 130.472 94.744L130.64 95.248C130.64 97.04 129.632 97.936 127.616 97.936ZM132.824 60.472C135.064 59.912 137.808 59.128 141.056 58.12C144.416 57.112 148.336 55.88 152.816 54.424C153.152 52.632 153.656 50.448 154.328 47.872C155.112 45.296 156.064 42.328 157.184 38.968C152.704 38.968 145.76 40.872 136.352 44.68C135.232 48.04 134.056 53.304 132.824 60.472Z" fill="#14819F"/>
<path fill-rule="evenodd" clip-rule="evenodd" d="M137.528 39.136C137.87 39.1049 138.229 39.0695 138.605 39.0298C139.585 38.9265 140.682 38.7938 141.896 38.632C143.688 38.296 145.648 37.848 147.776 37.288L157.856 34.768L164.576 15.952C168.496 5.984 171.464 1 173.48 1C174.936 1 175.72 1.504 175.832 2.512L175.496 2.848C173.09 6.89488 169.348 16.3892 164.272 31.3309C164.15 31.6895 164.027 32.0512 163.904 32.416L172.976 30.736C174.88 30.288 176.56 30.008 178.016 29.896C179.584 29.672 180.928 29.56 182.048 29.56C183.84 29.56 184.736 29.84 184.736 30.4C184.736 30.624 184.12 31.016 182.888 31.576C177.064 33.592 170.344 35.608 162.728 37.624C162.28 39.192 161.72 41.208 161.048 43.672C160.455 45.7465 159.732 48.1259 158.878 50.8103C158.764 51.1694 158.647 51.534 158.528 51.904C158.856 51.8385 159.231 51.7585 159.655 51.6642C160.679 51.4362 161.983 51.1241 163.568 50.728C165.92 50.056 168.888 49.16 172.472 48.04C178.744 46.136 183.28 45.184 186.08 45.184C187.536 45.184 188.264 45.408 188.264 45.856C188.264 47.088 183.896 48.712 175.16 50.728C168.216 52.408 162.448 54.48 157.856 56.944C157.296 59.632 156.848 62.208 156.512 64.672C156.288 67.024 156.176 69.32 156.176 71.56C156.176 79.4 158.08 84.664 161.888 87.352C161.44 89.144 160.432 90.04 158.864 90.04C158.304 90.04 157.688 89.872 157.016 89.536C152.536 87.408 150.296 81.864 150.296 72.904C150.296 68.3892 150.766 64.1094 151.706 60.0646C151.792 59.6944 151.882 59.3262 151.976 58.96C151.617 59.0537 151.249 59.1507 150.872 59.2509C148.548 59.8695 145.892 60.6126 142.904 61.48C139.544 62.488 135.736 63.72 131.48 65.176C130.024 71.112 129.296 76.936 129.296 82.648C129.296 84.552 129.352 86.512 129.464 88.528C129.688 90.544 130.024 92.616 130.472 94.744L130.64 95.248C130.64 97.04 129.632 97.936 127.616 97.936C125.152 97.936 123.92 94.464 123.92 87.52C123.92 84.496 124.144 81.248 124.592 77.776C124.999 74.5226 125.59 71.0385 126.366 67.3237C126.445 66.9462 126.525 66.5663 126.608 66.184L94.184 77.272C92.728 77.272 92 76.992 92 76.432C92 75.648 92.952 74.64 94.856 73.408C96.536 72.064 97.824 71.336 98.72 71.224C101.968 70.104 105.944 68.816 110.648 67.36C115.464 65.792 121.008 64.056 127.28 62.152C127.491 58.6685 128.399 53.7921 130.003 47.5228C130.101 47.1404 130.201 46.7528 130.304 46.36L117.704 50.728C111.656 52.856 107.68 53.92 105.776 53.92C104.432 53.92 103.76 53.528 103.76 52.744C103.76 50.504 108.8 48.152 118.88 45.688C125.04 44.232 129.464 42.944 132.152 41.824L136.352 27.376C138.368 20.768 140.44 16.568 142.568 14.776C142.568 14.776 144.001 14.776 144.92 14.776C142.033 24.2892 137.528 39.136 137.528 39.136ZM131.327 41.0796L135.395 27.0842C136.413 23.7503 137.453 20.993 138.521 18.8276C139.582 16.6771 140.706 15.0368 141.924 14.0111C141.924 14.0111 142.083 13.8523 142.203 13.776C142.683 13.4712 143.651 13.2735 144.16 13.528C145.16 14.028 144.92 14.776 144.92 14.776C142.577 23.8416 138.921 37.99 138.921 37.99C139.773 37.896 140.712 37.7808 141.738 37.6443C143.495 37.314 145.422 36.8733 147.522 36.3209L147.533 36.3178L157.094 33.9277L163.64 15.6008L163.645 15.586C165.612 10.5862 167.357 6.78857 168.883 4.22635C169.644 2.94859 170.375 1.93439 171.082 1.22739C171.763 0.546719 172.571 0 173.48 0C174.301 0 175.081 0.1381 175.701 0.536821C176.371 0.967434 176.74 1.6283 176.826 2.40157L176.879 2.87925L176.293 3.46552C173.974 7.41972 170.346 16.599 165.399 31.1221L172.77 29.7571C174.686 29.3074 176.399 29.0196 177.907 28.9015C179.491 28.6763 180.874 28.56 182.048 28.56C182.971 28.56 183.766 28.6292 184.362 28.8155C184.903 28.9845 185.736 29.4182 185.736 30.4C185.736 30.881 185.436 31.1979 185.328 31.3066C185.176 31.4582 184.991 31.591 184.811 31.7057C184.443 31.9396 183.931 32.2004 183.302 32.4864L183.259 32.5057L183.215 32.521C177.503 34.4982 170.942 36.4725 163.534 38.4446C163.116 39.9209 162.608 41.7508 162.013 43.9351L162.01 43.9467C161.455 45.8887 160.787 48.0931 160.007 50.5594C160.916 50.3507 162.016 50.0851 163.309 49.7619C165.648 49.0935 168.602 48.2016 172.174 47.0855L172.182 47.0831C178.456 45.1785 183.117 44.184 186.08 44.184C186.834 44.184 187.502 44.2392 188.012 44.3962C188.459 44.5339 189.264 44.9213 189.264 45.856C189.264 46.3183 189.058 46.6959 188.832 46.9709C188.607 47.2452 188.311 47.482 187.992 47.6905C187.353 48.1081 186.453 48.5202 185.336 48.9353C183.091 49.77 179.767 50.6911 175.39 51.7012C168.711 53.3173 163.168 55.2903 158.74 57.6072C158.23 60.1015 157.819 62.4946 157.506 64.7869C157.286 67.102 157.176 69.3597 157.176 71.56C157.176 79.2961 159.062 84.1332 162.465 86.535L163.024 86.93L162.858 87.5945C162.603 88.6155 162.161 89.4926 161.46 90.1154C160.744 90.7522 159.851 91.04 158.864 91.04C158.109 91.04 157.342 90.8154 156.58 90.436C151.538 88.0364 149.296 81.9238 149.296 72.904C149.296 68.5104 149.734 64.3265 150.615 60.3548C148.425 60.9425 145.949 61.6372 143.187 62.4393C139.98 63.4014 136.359 64.5698 132.323 65.9449C130.97 71.6244 130.296 77.1915 130.296 82.648C130.296 84.5238 130.351 86.456 130.461 88.4449C130.679 90.4005 131.005 92.4129 131.439 94.4822L131.64 95.0857V95.248C131.64 96.3307 131.33 97.3166 130.548 98.0114C129.789 98.6863 128.751 98.936 127.616 98.936C126.738 98.936 125.956 98.6164 125.314 98.0139C124.696 97.4326 124.24 96.6214 123.902 95.6664C123.227 93.7661 122.92 91.0237 122.92 87.52C122.92 84.4477 123.147 81.1572 123.6 77.6499C123.989 74.5369 124.545 71.2199 125.267 67.6995L94.3503 78.272H94.184C93.4208 78.272 92.7258 78.2026 92.187 77.9953C91.9102 77.8889 91.6138 77.7232 91.3808 77.4544C91.1309 77.1661 91 76.8106 91 76.432C91 75.6491 91.4587 74.9607 91.987 74.4014C92.5335 73.8227 93.3076 73.2217 94.2705 72.5958C95.1199 71.9186 95.8944 71.3766 96.5899 70.9834C97.2433 70.6142 97.882 70.3444 98.4835 70.2478C101.727 69.131 105.681 67.8506 110.346 66.4068C114.999 64.892 120.327 63.2213 126.332 61.3951C126.608 58.01 127.461 53.5095 128.871 47.9151L118.036 51.6713L118.035 51.6717C114.999 52.7399 112.467 53.5469 110.445 54.088C108.446 54.6227 106.868 54.92 105.776 54.92C105.04 54.92 104.323 54.8184 103.76 54.4898C103.114 54.1129 102.76 53.4883 102.76 52.744C102.76 51.7836 103.302 50.9687 104.032 50.3038C104.768 49.6326 105.816 49.0012 107.117 48.3938C109.727 47.1757 113.583 45.9533 118.643 44.7166L118.65 44.7148C124.469 43.3393 128.681 42.1262 131.327 41.0796ZM140.76 57.1649L140.769 57.1621C143.979 56.1992 147.704 55.0303 151.946 53.6551C152.283 51.9509 152.756 49.938 153.36 47.6196L153.365 47.6001L153.371 47.5808C154.05 45.3523 154.852 42.8342 155.779 40.027C151.557 40.3624 145.373 42.1328 137.158 45.4331C136.185 48.4842 135.156 53.0356 134.076 59.1148C135.989 58.604 138.216 57.9544 140.76 57.1649ZM133.886 60.1997C133.52 60.2957 133.166 60.3865 132.824 60.472C132.887 60.1075 132.949 59.7479 133.012 59.3932C134.175 52.7735 135.289 47.8691 136.352 44.68C145.044 41.1616 151.633 39.2686 156.119 39.001C156.488 38.979 156.843 38.968 157.184 38.968C157.071 39.3065 156.96 39.6411 156.851 39.9716C155.874 42.9221 155.033 45.5555 154.328 47.872C153.656 50.448 153.152 52.632 152.816 54.424C148.336 55.88 144.416 57.112 141.056 58.12C138.304 58.974 135.914 59.6672 133.886 60.1997Z" fill="#14819F"/>
<path d="M36.616 133.936C34.152 133.936 32.92 130.464 32.92 123.52C32.92 120.496 33.144 117.248 33.592 113.776C34.04 110.192 34.712 106.328 35.608 102.184L3.184 113.272C1.728 113.272 1 112.992 1 112.432C1 111.648 1.952 110.64 3.856 109.408C5.536 108.064 6.824 107.336 7.72 107.224C10.968 106.104 14.944 104.816 19.648 103.36C24.464 101.792 30.008 100.056 36.28 98.152C36.504 94.456 37.512 89.192 39.304 82.36L26.704 86.728C20.656 88.856 16.68 89.92 14.776 89.92C13.432 89.92 12.76 89.528 12.76 88.744C12.76 86.504 17.8 84.152 27.88 81.688C34.04 80.232 38.464 78.944 41.152 77.824L45.352 63.376C47.368 56.768 49.44 52.568 51.568 50.776H53.92L46.528 75.136C47.76 75.024 49.216 74.856 50.896 74.632C52.688 74.296 54.648 73.848 56.776 73.288L66.856 70.768L73.576 51.952C77.496 41.984 80.464 37 82.48 37C83.936 37 84.72 37.504 84.832 38.512L84.496 38.848C82.032 42.992 78.168 52.848 72.904 68.416L81.976 66.736C83.88 66.288 85.56 66.008 87.016 65.896C88.584 65.672 89.928 65.56 91.048 65.56C92.84 65.56 93.736 65.84 93.736 66.4C93.736 66.624 93.12 67.016 91.888 67.576C86.064 69.592 79.344 71.608 71.728 73.624C71.28 75.192 70.72 77.208 70.048 79.672C69.376 82.024 68.536 84.768 67.528 87.904C68.648 87.68 70.328 87.288 72.568 86.728C74.92 86.056 77.888 85.16 81.472 84.04C87.744 82.136 92.28 81.184 95.08 81.184C96.536 81.184 97.264 81.408 97.264 81.856C97.264 83.088 92.896 84.712 84.16 86.728C77.216 88.408 71.448 90.48 66.856 92.944C66.296 95.632 65.848 98.208 65.512 100.672C65.288 103.024 65.176 105.32 65.176 107.56C65.176 115.4 67.08 120.664 70.888 123.352C70.44 125.144 69.432 126.04 67.864 126.04C67.304 126.04 66.688 125.872 66.016 125.536C61.536 123.408 59.296 117.864 59.296 108.904C59.296 103.976 59.856 99.328 60.976 94.96C58.4 95.632 55.376 96.472 51.904 97.48C48.544 98.488 44.736 99.72 40.48 101.176C39.024 107.112 38.296 112.936 38.296 118.648C38.296 120.552 38.352 122.512 38.464 124.528C38.688 126.544 39.024 128.616 39.472 130.744L39.64 131.248C39.64 133.04 38.632 133.936 36.616 133.936ZM41.824 96.472C44.064 95.912 46.808 95.128 50.056 94.12C53.416 93.112 57.336 91.88 61.816 90.424C62.152 88.632 62.656 86.448 63.328 83.872C64.112 81.296 65.064 78.328 66.184 74.968C61.704 74.968 54.76 76.872 45.352 80.68C44.232 84.04 43.056 89.304 41.824 96.472Z" fill="#14819F"/>
<path fill-rule="evenodd" clip-rule="evenodd" d="M46.528 75.136C46.8698 75.1049 47.2289 75.0695 47.6052 75.0298C48.5852 74.9265 49.6821 74.7938 50.896 74.632C52.688 74.296 54.648 73.848 56.776 73.288L66.856 70.768L73.576 51.952C77.496 41.984 80.464 37 82.48 37C83.936 37 84.72 37.504 84.832 38.512L84.496 38.848C82.0898 42.8949 78.3483 52.3892 73.2718 67.3309C73.15 67.6895 73.0274 68.0512 72.904 68.416L81.976 66.736C83.88 66.288 85.56 66.008 87.016 65.896C88.584 65.672 89.928 65.56 91.048 65.56C92.84 65.56 93.736 65.84 93.736 66.4C93.736 66.624 93.12 67.016 91.888 67.576C86.064 69.592 79.344 71.608 71.728 73.624C71.28 75.192 70.72 77.208 70.048 79.672C69.4553 81.7465 68.7319 84.1259 67.8778 86.8103C67.7635 87.1694 67.6469 87.534 67.528 87.904C67.8557 87.8385 68.2314 87.7585 68.655 87.6642C69.6791 87.4362 70.9835 87.1241 72.568 86.728C74.92 86.056 77.888 85.16 81.472 84.04C87.744 82.136 92.28 81.184 95.08 81.184C96.536 81.184 97.264 81.408 97.264 81.856C97.264 83.088 92.896 84.712 84.16 86.728C77.216 88.408 71.448 90.48 66.856 92.944C66.296 95.632 65.848 98.208 65.512 100.672C65.288 103.024 65.176 105.32 65.176 107.56C65.176 115.4 67.08 120.664 70.888 123.352C70.44 125.144 69.432 126.04 67.864 126.04C67.304 126.04 66.688 125.872 66.016 125.536C61.536 123.408 59.296 117.864 59.296 108.904C59.296 104.389 59.766 100.109 60.7061 96.0646C60.7921 95.6944 60.8821 95.3262 60.976 94.96C60.6168 95.0537 60.2488 95.1507 59.8722 95.2509C57.5479 95.8695 54.8918 96.6126 51.904 97.48C48.544 98.488 44.736 99.72 40.48 101.176C39.024 107.112 38.296 112.936 38.296 118.648C38.296 120.552 38.352 122.512 38.464 124.528C38.688 126.544 39.024 128.616 39.472 130.744L39.64 131.248C39.64 133.04 38.632 133.936 36.616 133.936C34.152 133.936 32.92 130.464 32.92 123.52C32.92 120.496 33.144 117.248 33.592 113.776C33.9987 110.523 34.5899 107.039 35.3658 103.324C35.4446 102.946 35.5253 102.566 35.608 102.184L3.184 113.272C1.728 113.272 1 112.992 1 112.432C1 111.648 1.952 110.64 3.856 109.408C5.536 108.064 6.824 107.336 7.72 107.224C10.968 106.104 14.944 104.816 19.648 103.36C24.464 101.792 30.008 100.056 36.28 98.152C36.4911 94.6685 37.3987 89.7921 39.0027 83.5228C39.1005 83.1404 39.201 82.7528 39.304 82.36L26.704 86.728C20.656 88.856 16.68 89.92 14.776 89.92C13.432 89.92 12.76 89.528 12.76 88.744C12.76 86.504 17.8 84.152 27.88 81.688C34.04 80.232 38.464 78.944 41.152 77.824L45.352 63.376C47.368 56.768 49.44 52.568 51.568 50.776C51.568 50.776 53.0015 50.776 53.92 50.776C51.0332 60.2892 46.528 75.136 46.528 75.136ZM40.327 77.0796L44.3954 63.0842C45.4126 59.7503 46.4529 56.993 47.5212 54.8276C48.5821 52.6771 49.7059 51.0368 50.9239 50.0111C50.9239 50.0111 51.0827 49.8523 51.203 49.776C51.6835 49.4712 52.6511 49.2735 53.16 49.528C54.16 50.028 53.92 50.776 53.92 50.776C51.5772 59.8416 47.9208 73.99 47.9208 73.99C48.7734 73.896 49.7122 73.7808 50.7376 73.6443C52.4948 73.314 54.4225 72.8733 56.5215 72.3209L56.5334 72.3178L66.0943 69.9277L72.6396 51.6008L72.6454 51.586C74.6116 46.5862 76.357 42.7886 77.8828 40.2263C78.6437 38.9486 79.3754 37.9344 80.0824 37.2274C80.7631 36.5467 81.571 36 82.48 36C83.3006 36 84.0805 36.1381 84.7008 36.5368C85.3706 36.9674 85.74 37.6283 85.8259 38.4016L85.879 38.8793L85.2927 39.4655C82.9742 43.4197 79.3456 52.599 74.3991 67.1221L81.7704 65.7571C83.6855 65.3074 85.3995 65.0196 86.9066 64.9015C88.4906 64.6763 89.8737 64.56 91.048 64.56C91.9709 64.56 92.766 64.6292 93.3623 64.8155C93.9031 64.9845 94.736 65.4182 94.736 66.4C94.736 66.881 94.4363 67.1979 94.3276 67.3066C94.176 67.4582 93.9911 67.591 93.8109 67.7057C93.4433 67.9396 92.931 68.2004 92.3018 68.4864L92.2593 68.5057L92.2151 68.521C86.5033 70.4982 79.9422 72.4725 72.5342 74.4446C72.1156 75.9209 71.6085 77.7508 71.0128 79.9351L71.0096 79.9467C70.4548 81.8887 69.7869 84.0931 69.0065 86.5594C69.9159 86.3507 71.0162 86.0851 72.3094 85.7619C74.648 85.0935 77.6021 84.2016 81.1737 83.0855L81.1815 83.0831C87.4556 81.1785 92.1175 80.184 95.08 80.184C95.8344 80.184 96.5017 80.2392 97.0121 80.3962C97.4594 80.5339 98.264 80.9213 98.264 81.856C98.264 82.3183 98.0579 82.6959 97.8321 82.9709C97.607 83.2452 97.3112 83.482 96.9923 83.6905C96.3535 84.1081 95.4529 84.5202 94.3365 84.9353C92.0915 85.77 88.7666 86.6911 84.39 87.7012C77.7113 89.3173 72.1677 91.2903 67.7402 93.6072C67.2301 96.1015 66.8187 98.4946 66.5056 100.787C66.2857 103.102 66.176 105.36 66.176 107.56C66.176 115.296 68.0621 120.133 71.4647 122.535L72.0243 122.93L71.8582 123.595C71.6029 124.616 71.1611 125.493 70.4604 126.115C69.744 126.752 68.8506 127.04 67.864 127.04C67.1088 127.04 66.3419 126.815 65.58 126.436C60.5378 124.036 58.296 117.924 58.296 108.904C58.296 104.51 58.7344 100.327 59.6148 96.3548C57.425 96.9425 54.9492 97.6372 52.1865 98.4393C48.9797 99.4014 45.3588 100.57 41.3229 101.945C39.9704 107.624 39.296 113.192 39.296 118.648C39.296 120.524 39.3509 122.456 39.4609 124.445C39.6792 126.4 40.0049 128.413 40.4388 130.482L40.64 131.086V131.248C40.64 132.331 40.3301 133.317 39.5484 134.011C38.7891 134.686 37.751 134.936 36.616 134.936C35.7375 134.936 34.9558 134.616 34.3143 134.014C33.6956 133.433 33.2404 132.621 32.9016 131.666C32.2273 129.766 31.92 127.024 31.92 123.52C31.92 120.448 32.1475 117.157 32.6 113.65C32.9892 110.537 33.5451 107.22 34.2668 103.7L3.35026 114.272H3.184C2.42075 114.272 1.7258 114.203 1.18702 113.995C0.91019 113.889 0.613755 113.723 0.38081 113.454C0.130929 113.166 0 112.811 0 112.432C0 111.649 0.458696 110.961 0.986987 110.401C1.53347 109.823 2.30764 109.222 3.27049 108.596C4.1199 107.919 4.89438 107.377 5.58994 106.983C6.24328 106.614 6.88201 106.344 7.48347 106.248C10.7266 105.131 14.6813 103.851 19.3456 102.407C23.9985 100.892 29.3274 99.2213 35.3316 97.3951C35.6082 94.01 36.4609 89.5095 37.8713 83.9151L27.0359 87.6713L27.0349 87.6717C23.9989 88.7399 21.4667 89.5469 19.4445 90.088C17.4464 90.6227 15.8683 90.92 14.776 90.92C14.0395 90.92 13.3234 90.8184 12.7601 90.4898C12.114 90.1129 11.76 89.4883 11.76 88.744C11.76 87.7836 12.3017 86.9687 13.0315 86.3038C13.7682 85.6326 14.8156 85.0012 16.1171 84.3938C18.7274 83.1757 22.5834 81.9533 27.6425 80.7166L27.65 80.7148C33.4694 79.3393 37.6813 78.1262 40.327 77.0796ZM49.7596 93.1649L49.7686 93.1621C52.9786 92.1992 56.7041 91.0303 60.9459 89.6551C61.2834 87.9509 61.7556 85.938 62.3604 83.6196L62.3655 83.6001L62.3713 83.5808C63.0496 81.3523 63.8523 78.8342 64.7791 76.027C60.5574 76.3624 54.373 78.1328 46.1582 81.4331C45.1847 84.4842 44.1559 89.0356 43.0762 95.1148C44.9886 94.604 47.2158 93.9544 49.7596 93.1649ZM42.8858 96.1997C42.5201 96.2957 42.1662 96.3865 41.824 96.472C41.8867 96.1075 41.9492 95.7479 42.0115 95.3932C43.1755 88.7735 44.289 83.8691 45.352 80.68C54.0445 77.1616 60.6335 75.2686 65.119 75.001C65.4883 74.979 65.8433 74.968 66.184 74.968C66.0712 75.3065 65.96 75.6411 65.8506 75.9716C64.8739 78.9221 64.033 81.5555 63.328 83.872C62.656 86.448 62.152 88.632 61.816 90.424C57.336 91.88 53.416 93.112 50.056 94.12C47.3042 94.974 44.9141 95.6672 42.8858 96.1997Z" fill="#14819F"/>
<path d="M78.616 188.936C76.152 188.936 74.92 185.464 74.92 178.52C74.92 175.496 75.144 172.248 75.592 168.776C76.04 165.192 76.712 161.328 77.608 157.184L45.184 168.272C43.728 168.272 43 167.992 43 167.432C43 166.648 43.952 165.64 45.856 164.408C47.536 163.064 48.824 162.336 49.72 162.224C52.968 161.104 56.944 159.816 61.648 158.36C66.464 156.792 72.008 155.056 78.28 153.152C78.504 149.456 79.512 144.192 81.304 137.36L68.704 141.728C62.656 143.856 58.68 144.92 56.776 144.92C55.432 144.92 54.76 144.528 54.76 143.744C54.76 141.504 59.8 139.152 69.88 136.688C76.04 135.232 80.464 133.944 83.152 132.824L87.352 118.376C89.368 111.768 91.44 107.568 93.568 105.776H95.92L88.528 130.136C89.76 130.024 91.216 129.856 92.896 129.632C94.688 129.296 96.648 128.848 98.776 128.288L108.856 125.768L115.576 106.952C119.496 96.984 122.464 92 124.48 92C125.936 92 126.72 92.504 126.832 93.512L126.496 93.848C124.032 97.992 120.168 107.848 114.904 123.416L123.976 121.736C125.88 121.288 127.56 121.008 129.016 120.896C130.584 120.672 131.928 120.56 133.048 120.56C134.84 120.56 135.736 120.84 135.736 121.4C135.736 121.624 135.12 122.016 133.888 122.576C128.064 124.592 121.344 126.608 113.728 128.624C113.28 130.192 112.72 132.208 112.048 134.672C111.376 137.024 110.536 139.768 109.528 142.904C110.648 142.68 112.328 142.288 114.568 141.728C116.92 141.056 119.888 140.16 123.472 139.04C129.744 137.136 134.28 136.184 137.08 136.184C138.536 136.184 139.264 136.408 139.264 136.856C139.264 138.088 134.896 139.712 126.16 141.728C119.216 143.408 113.448 145.48 108.856 147.944C108.296 150.632 107.848 153.208 107.512 155.672C107.288 158.024 107.176 160.32 107.176 162.56C107.176 170.4 109.08 175.664 112.888 178.352C112.44 180.144 111.432 181.04 109.864 181.04C109.304 181.04 108.688 180.872 108.016 180.536C103.536 178.408 101.296 172.864 101.296 163.904C101.296 158.976 101.856 154.328 102.976 149.96C100.4 150.632 97.376 151.472 93.904 152.48C90.544 153.488 86.736 154.72 82.48 156.176C81.024 162.112 80.296 167.936 80.296 173.648C80.296 175.552 80.352 177.512 80.464 179.528C80.688 181.544 81.024 183.616 81.472 185.744L81.64 186.248C81.64 188.04 80.632 188.936 78.616 188.936ZM83.824 151.472C86.064 150.912 88.808 150.128 92.056 149.12C95.416 148.112 99.336 146.88 103.816 145.424C104.152 143.632 104.656 141.448 105.328 138.872C106.112 136.296 107.064 133.328 108.184 129.968C103.704 129.968 96.76 131.872 87.352 135.68C86.232 139.04 85.056 144.304 83.824 151.472Z" fill="#14819F"/>
<path fill-rule="evenodd" clip-rule="evenodd" d="M88.528 130.136C88.8698 130.105 89.2289 130.07 89.6052 130.03C90.5852 129.926 91.6821 129.794 92.896 129.632C94.688 129.296 96.648 128.848 98.776 128.288L108.856 125.768L115.576 106.952C119.496 96.984 122.464 92 124.48 92C125.936 92 126.72 92.504 126.832 93.512L126.496 93.848C124.09 97.8949 120.348 107.389 115.272 122.331C115.15 122.689 115.027 123.051 114.904 123.416L123.976 121.736C125.88 121.288 127.56 121.008 129.016 120.896C130.584 120.672 131.928 120.56 133.048 120.56C134.84 120.56 135.736 120.84 135.736 121.4C135.736 121.624 135.12 122.016 133.888 122.576C128.064 124.592 121.344 126.608 113.728 128.624C113.28 130.192 112.72 132.208 112.048 134.672C111.455 136.746 110.732 139.126 109.878 141.81C109.764 142.169 109.647 142.534 109.528 142.904C109.856 142.838 110.231 142.759 110.655 142.664C111.679 142.436 112.983 142.124 114.568 141.728C116.92 141.056 119.888 140.16 123.472 139.04C129.744 137.136 134.28 136.184 137.08 136.184C138.536 136.184 139.264 136.408 139.264 136.856C139.264 138.088 134.896 139.712 126.16 141.728C119.216 143.408 113.448 145.48 108.856 147.944C108.296 150.632 107.848 153.208 107.512 155.672C107.288 158.024 107.176 160.32 107.176 162.56C107.176 170.4 109.08 175.664 112.888 178.352C112.44 180.144 111.432 181.04 109.864 181.04C109.304 181.04 108.688 180.872 108.016 180.536C103.536 178.408 101.296 172.864 101.296 163.904C101.296 159.389 101.766 155.109 102.706 151.065C102.792 150.694 102.882 150.326 102.976 149.96C102.617 150.054 102.249 150.151 101.872 150.251C99.5479 150.87 96.8918 151.613 93.904 152.48C90.544 153.488 86.736 154.72 82.48 156.176C81.024 162.112 80.296 167.936 80.296 173.648C80.296 175.552 80.352 177.512 80.464 179.528C80.688 181.544 81.024 183.616 81.472 185.744L81.64 186.248C81.64 188.04 80.632 188.936 78.616 188.936C76.152 188.936 74.92 185.464 74.92 178.52C74.92 175.496 75.144 172.248 75.592 168.776C75.9987 165.523 76.5899 162.039 77.3658 158.324C77.4446 157.946 77.5253 157.566 77.608 157.184L45.184 168.272C43.728 168.272 43 167.992 43 167.432C43 166.648 43.952 165.64 45.856 164.408C47.536 163.064 48.824 162.336 49.72 162.224C52.968 161.104 56.944 159.816 61.648 158.36C66.464 156.792 72.008 155.056 78.28 153.152C78.4911 149.668 79.3987 144.792 81.0027 138.523C81.1005 138.14 81.201 137.753 81.304 137.36L68.704 141.728C62.656 143.856 58.68 144.92 56.776 144.92C55.432 144.92 54.76 144.528 54.76 143.744C54.76 141.504 59.8 139.152 69.88 136.688C76.04 135.232 80.464 133.944 83.152 132.824L87.352 118.376C89.368 111.768 91.44 107.568 93.568 105.776C93.568 105.776 95.0015 105.776 95.92 105.776C93.0332 115.289 88.528 130.136 88.528 130.136ZM82.327 132.08L86.3954 118.084C87.4126 114.75 88.4529 111.993 89.5212 109.828C90.5821 107.677 91.7059 106.037 92.9239 105.011C92.9239 105.011 93.0827 104.852 93.203 104.776C93.6835 104.471 94.6511 104.274 95.16 104.528C96.16 105.028 95.92 105.776 95.92 105.776C93.5772 114.842 89.9208 128.99 89.9208 128.99C90.7734 128.896 91.7122 128.781 92.7376 128.644C94.4948 128.314 96.4225 127.873 98.5215 127.321L98.5334 127.318L108.094 124.928L114.64 106.601L114.645 106.586C116.612 101.586 118.357 97.7886 119.883 95.2263C120.644 93.9486 121.375 92.9344 122.082 92.2274C122.763 91.5467 123.571 91 124.48 91C125.301 91 126.081 91.1381 126.701 91.5368C127.371 91.9674 127.74 92.6283 127.826 93.4016L127.879 93.8793L127.293 94.4655C124.974 98.4197 121.346 107.599 116.399 122.122L123.77 120.757C125.686 120.307 127.399 120.02 128.907 119.901C130.491 119.676 131.874 119.56 133.048 119.56C133.971 119.56 134.766 119.629 135.362 119.816C135.903 119.985 136.736 120.418 136.736 121.4C136.736 121.881 136.436 122.198 136.328 122.307C136.176 122.458 135.991 122.591 135.811 122.706C135.443 122.94 134.931 123.2 134.302 123.486L134.259 123.506L134.215 123.521C128.503 125.498 121.942 127.473 114.534 129.445C114.116 130.921 113.608 132.751 113.013 134.935L113.01 134.947C112.455 136.889 111.787 139.093 111.007 141.559C111.916 141.351 113.016 141.085 114.309 140.762C116.648 140.093 119.602 139.202 123.174 138.086L123.182 138.083C129.456 136.178 134.117 135.184 137.08 135.184C137.834 135.184 138.502 135.239 139.012 135.396C139.459 135.534 140.264 135.921 140.264 136.856C140.264 137.318 140.058 137.696 139.832 137.971C139.607 138.245 139.311 138.482 138.992 138.69C138.353 139.108 137.453 139.52 136.336 139.935C134.091 140.77 130.767 141.691 126.39 142.701C119.711 144.317 114.168 146.29 109.74 148.607C109.23 151.101 108.819 153.495 108.506 155.787C108.286 158.102 108.176 160.36 108.176 162.56C108.176 170.296 110.062 175.133 113.465 177.535L114.024 177.93L113.858 178.595C113.603 179.616 113.161 180.493 112.46 181.115C111.744 181.752 110.851 182.04 109.864 182.04C109.109 182.04 108.342 181.815 107.58 181.436C102.538 179.036 100.296 172.924 100.296 163.904C100.296 159.51 100.734 155.327 101.615 151.355C99.425 151.943 96.9492 152.637 94.1865 153.439C90.9797 154.401 87.3588 155.57 83.3229 156.945C81.9704 162.624 81.296 168.192 81.296 173.648C81.296 175.524 81.3509 177.456 81.4609 179.445C81.6792 181.4 82.0049 183.413 82.4388 185.482L82.64 186.086V186.248C82.64 187.331 82.3301 188.317 81.5484 189.011C80.7891 189.686 79.751 189.936 78.616 189.936C77.7375 189.936 76.9558 189.616 76.3143 189.014C75.6956 188.433 75.2404 187.621 74.9016 186.666C74.2273 184.766 73.92 182.024 73.92 178.52C73.92 175.448 74.1475 172.157 74.6 168.65C74.9892 165.537 75.5451 162.22 76.2668 158.7L45.3503 169.272H45.184C44.4208 169.272 43.7258 169.203 43.187 168.995C42.9102 168.889 42.6138 168.723 42.3808 168.454C42.1309 168.166 42 167.811 42 167.432C42 166.649 42.4587 165.961 42.987 165.401C43.5335 164.823 44.3076 164.222 45.2705 163.596C46.1199 162.919 46.8944 162.377 47.5899 161.983C48.2433 161.614 48.882 161.344 49.4835 161.248C52.7266 160.131 56.6813 158.851 61.3456 157.407C65.9985 155.892 71.3274 154.221 77.3316 152.395C77.6082 149.01 78.4609 144.509 79.8713 138.915L69.0359 142.671L69.0349 142.672C65.9989 143.74 63.4667 144.547 61.4445 145.088C59.4464 145.623 57.8683 145.92 56.776 145.92C56.0395 145.92 55.3234 145.818 54.7601 145.49C54.114 145.113 53.76 144.488 53.76 143.744C53.76 142.784 54.3017 141.969 55.0315 141.304C55.7682 140.633 56.8156 140.001 58.1171 139.394C60.7274 138.176 64.5834 136.953 69.6425 135.717L69.65 135.715C75.4694 134.339 79.6813 133.126 82.327 132.08ZM91.7596 148.165L91.7686 148.162C94.9786 147.199 98.7041 146.03 102.946 144.655C103.283 142.951 103.756 140.938 104.36 138.62L104.365 138.6L104.371 138.581C105.05 136.352 105.852 133.834 106.779 131.027C102.557 131.362 96.373 133.133 88.1582 136.433C87.1847 139.484 86.1559 144.036 85.0762 150.115C86.9886 149.604 89.2158 148.954 91.7596 148.165ZM84.8858 151.2C84.5201 151.296 84.1662 151.386 83.824 151.472C83.8867 151.107 83.9492 150.748 84.0115 150.393C85.1755 143.774 86.289 138.869 87.352 135.68C96.0445 132.162 102.633 130.269 107.119 130.001C107.488 129.979 107.843 129.968 108.184 129.968C108.071 130.307 107.96 130.641 107.851 130.972C106.874 133.922 106.033 136.556 105.328 138.872C104.656 141.448 104.152 143.632 103.816 145.424C99.336 146.88 95.416 148.112 92.056 149.12C89.3042 149.974 86.9141 150.667 84.8858 151.2Z" fill="#14819F"/>
</svg>
