<svg width="560" height="359" viewBox="0 0 560 359" fill="none" xmlns="http://www.w3.org/2000/svg">
<path d="M127.616 97.936C125.152 97.936 123.92 94.464 123.92 87.52C123.92 84.496 124.144 81.248 124.592 77.776C125.04 74.192 125.712 70.328 126.608 66.184L94.184 77.272C92.728 77.272 92 76.992 92 76.432C92 75.648 92.952 74.64 94.856 73.408C96.536 72.064 97.824 71.336 98.72 71.224C101.968 70.104 105.944 68.816 110.648 67.36C115.464 65.792 121.008 64.056 127.28 62.152C127.504 58.456 128.512 53.192 130.304 46.36L117.704 50.728C111.656 52.856 107.68 53.92 105.776 53.92C104.432 53.92 103.76 53.528 103.76 52.744C103.76 50.504 108.8 48.152 118.88 45.688C125.04 44.232 129.464 42.944 132.152 41.824L136.352 27.376C138.368 20.768 140.44 16.568 142.568 14.776H144.92L137.528 39.136C138.76 39.024 140.216 38.856 141.896 38.632C143.688 38.296 145.648 37.848 147.776 37.288L157.856 34.768L164.576 15.952C168.496 5.984 171.464 1 173.48 1C174.936 1 175.72 1.504 175.832 2.512L175.496 2.848C173.032 6.992 169.168 16.848 163.904 32.416L172.976 30.736C174.88 30.288 176.56 30.008 178.016 29.896C179.584 29.672 180.928 29.56 182.048 29.56C183.84 29.56 184.736 29.84 184.736 30.4C184.736 30.624 184.12 31.016 182.888 31.576C177.064 33.592 170.344 35.608 162.728 37.624C162.28 39.192 161.72 41.208 161.048 43.672C160.376 46.024 159.536 48.768 158.528 51.904C159.648 51.68 161.328 51.288 163.568 50.728C165.92 50.056 168.888 49.16 172.472 48.04C178.744 46.136 183.28 45.184 186.08 45.184C187.536 45.184 188.264 45.408 188.264 45.856C188.264 47.088 183.896 48.712 175.16 50.728C168.216 52.408 162.448 54.48 157.856 56.944C157.296 59.632 156.848 62.208 156.512 64.672C156.288 67.024 156.176 69.32 156.176 71.56C156.176 79.4 158.08 84.664 161.888 87.352C161.44 89.144 160.432 90.04 158.864 90.04C158.304 90.04 157.688 89.872 157.016 89.536C152.536 87.408 150.296 81.864 150.296 72.904C150.296 67.976 150.856 63.328 151.976 58.96C149.4 59.632 146.376 60.472 142.904 61.48C139.544 62.488 135.736 63.72 131.48 65.176C130.024 71.112 129.296 76.936 129.296 82.648C129.296 84.552 129.352 86.512 129.464 88.528C129.688 90.544 130.024 92.616 130.472 94.744L130.64 95.248C130.64 97.04 129.632 97.936 127.616 97.936ZM132.824 60.472C135.064 59.912 137.808 59.128 141.056 58.12C144.416 57.112 148.336 55.88 152.816 54.424C153.152 52.632 153.656 50.448 154.328 47.872C155.112 45.296 156.064 42.328 157.184 38.968C152.704 38.968 145.76 40.872 136.352 44.68C135.232 48.04 134.056 53.304 132.824 60.472Z" fill="#14819F"/>
<path fill-rule="evenodd" clip-rule="evenodd" d="M137.528 39.136C137.87 39.1049 138.229 39.0695 138.605 39.0298C139.585 38.9265 140.682 38.7938 141.896 38.632C143.688 38.296 145.648 37.848 147.776 37.288L157.856 34.768L164.576 15.952C168.496 5.984 171.464 1 173.48 1C174.936 1 175.72 1.504 175.832 2.512L175.496 2.848C173.09 6.89488 169.348 16.3892 164.272 31.3309C164.15 31.6895 164.027 32.0512 163.904 32.416L172.976 30.736C174.88 30.288 176.56 30.008 178.016 29.896C179.584 29.672 180.928 29.56 182.048 29.56C183.84 29.56 184.736 29.84 184.736 30.4C184.736 30.624 184.12 31.016 182.888 31.576C177.064 33.592 170.344 35.608 162.728 37.624C162.28 39.192 161.72 41.208 161.048 43.672C160.455 45.7465 159.732 48.1259 158.878 50.8103C158.764 51.1694 158.647 51.534 158.528 51.904C158.856 51.8385 159.231 51.7585 159.655 51.6642C160.679 51.4362 161.983 51.1241 163.568 50.728C165.92 50.056 168.888 49.16 172.472 48.04C178.744 46.136 183.28 45.184 186.08 45.184C187.536 45.184 188.264 45.408 188.264 45.856C188.264 47.088 183.896 48.712 175.16 50.728C168.216 52.408 162.448 54.48 157.856 56.944C157.296 59.632 156.848 62.208 156.512 64.672C156.288 67.024 156.176 69.32 156.176 71.56C156.176 79.4 158.08 84.664 161.888 87.352C161.44 89.144 160.432 90.04 158.864 90.04C158.304 90.04 157.688 89.872 157.016 89.536C152.536 87.408 150.296 81.864 150.296 72.904C150.296 68.3892 150.766 64.1094 151.706 60.0646C151.792 59.6944 151.882 59.3262 151.976 58.96C151.617 59.0537 151.249 59.1507 150.872 59.2509C148.548 59.8695 145.892 60.6126 142.904 61.48C139.544 62.488 135.736 63.72 131.48 65.176C130.024 71.112 129.296 76.936 129.296 82.648C129.296 84.552 129.352 86.512 129.464 88.528C129.688 90.544 130.024 92.616 130.472 94.744L130.64 95.248C130.64 97.04 129.632 97.936 127.616 97.936C125.152 97.936 123.92 94.464 123.92 87.52C123.92 84.496 124.144 81.248 124.592 77.776C124.999 74.5226 125.59 71.0385 126.366 67.3237C126.445 66.9462 126.525 66.5663 126.608 66.184L94.184 77.272C92.728 77.272 92 76.992 92 76.432C92 75.648 92.952 74.64 94.856 73.408C96.536 72.064 97.824 71.336 98.72 71.224C101.968 70.104 105.944 68.816 110.648 67.36C115.464 65.792 121.008 64.056 127.28 62.152C127.491 58.6685 128.399 53.7921 130.003 47.5228C130.101 47.1404 130.201 46.7528 130.304 46.36L117.704 50.728C111.656 52.856 107.68 53.92 105.776 53.92C104.432 53.92 103.76 53.528 103.76 52.744C103.76 50.504 108.8 48.152 118.88 45.688C125.04 44.232 129.464 42.944 132.152 41.824L136.352 27.376C138.368 20.768 140.44 16.568 142.568 14.776C142.568 14.776 144.001 14.776 144.92 14.776C142.033 24.2892 137.528 39.136 137.528 39.136ZM131.327 41.0796L135.395 27.0842C136.413 23.7503 137.453 20.993 138.521 18.8276C139.582 16.6771 140.706 15.0368 141.924 14.0111C141.924 14.0111 142.083 13.8523 142.203 13.776C142.683 13.4712 143.651 13.2735 144.16 13.528C145.16 14.028 144.92 14.776 144.92 14.776C142.577 23.8416 138.921 37.99 138.921 37.99C139.773 37.896 140.712 37.7808 141.738 37.6443C143.495 37.314 145.422 36.8733 147.522 36.3209L147.533 36.3178L157.094 33.9277L163.64 15.6008L163.645 15.586C165.612 10.5862 167.357 6.78857 168.883 4.22635C169.644 2.94859 170.375 1.93439 171.082 1.22739C171.763 0.546719 172.571 0 173.48 0C174.301 0 175.081 0.1381 175.701 0.536821C176.371 0.967434 176.74 1.6283 176.826 2.40157L176.879 2.87925L176.293 3.46552C173.974 7.41972 170.346 16.599 165.399 31.1221L172.77 29.7571C174.686 29.3074 176.399 29.0196 177.907 28.9015C179.491 28.6763 180.874 28.56 182.048 28.56C182.971 28.56 183.766 28.6292 184.362 28.8155C184.903 28.9845 185.736 29.4182 185.736 30.4C185.736 30.881 185.436 31.1979 185.328 31.3066C185.176 31.4582 184.991 31.591 184.811 31.7057C184.443 31.9396 183.931 32.2004 183.302 32.4864L183.259 32.5057L183.215 32.521C177.503 34.4982 170.942 36.4725 163.534 38.4446C163.116 39.9209 162.608 41.7508 162.013 43.9351L162.01 43.9467C161.455 45.8887 160.787 48.0931 160.007 50.5594C160.916 50.3507 162.016 50.0851 163.309 49.7619C165.648 49.0935 168.602 48.2016 172.174 47.0855L172.182 47.0831C178.456 45.1785 183.117 44.184 186.08 44.184C186.834 44.184 187.502 44.2392 188.012 44.3962C188.459 44.5339 189.264 44.9213 189.264 45.856C189.264 46.3183 189.058 46.6959 188.832 46.9709C188.607 47.2452 188.311 47.482 187.992 47.6905C187.353 48.1081 186.453 48.5202 185.336 48.9353C183.091 49.77 179.767 50.6911 175.39 51.7012C168.711 53.3173 163.168 55.2903 158.74 57.6072C158.23 60.1015 157.819 62.4946 157.506 64.7869C157.286 67.102 157.176 69.3597 157.176 71.56C157.176 79.2961 159.062 84.1332 162.465 86.535L163.024 86.93L162.858 87.5945C162.603 88.6155 162.161 89.4926 161.46 90.1154C160.744 90.7522 159.851 91.04 158.864 91.04C158.109 91.04 157.342 90.8154 156.58 90.436C151.538 88.0364 149.296 81.9238 149.296 72.904C149.296 68.5104 149.734 64.3265 150.615 60.3548C148.425 60.9425 145.949 61.6372 143.187 62.4393C139.98 63.4014 136.359 64.5698 132.323 65.9449C130.97 71.6244 130.296 77.1915 130.296 82.648C130.296 84.5238 130.351 86.456 130.461 88.4449C130.679 90.4005 131.005 92.4129 131.439 94.4822L131.64 95.0857V95.248C131.64 96.3307 131.33 97.3166 130.548 98.0114C129.789 98.6863 128.751 98.936 127.616 98.936C126.738 98.936 125.956 98.6164 125.314 98.0139C124.696 97.4326 124.24 96.6214 123.902 95.6664C123.227 93.7661 122.92 91.0237 122.92 87.52C122.92 84.4477 123.147 81.1572 123.6 77.6499C123.989 74.5369 124.545 71.2199 125.267 67.6995L94.3503 78.272H94.184C93.4208 78.272 92.7258 78.2026 92.187 77.9953C91.9102 77.8889 91.6138 77.7232 91.3808 77.4544C91.1309 77.1661 91 76.8106 91 76.432C91 75.6491 91.4587 74.9607 91.987 74.4014C92.5335 73.8227 93.3076 73.2217 94.2705 72.5958C95.1199 71.9186 95.8944 71.3766 96.5899 70.9834C97.2433 70.6142 97.882 70.3444 98.4835 70.2478C101.727 69.131 105.681 67.8506 110.346 66.4068C114.999 64.892 120.327 63.2213 126.332 61.3951C126.608 58.01 127.461 53.5095 128.871 47.9151L118.036 51.6713L118.035 51.6717C114.999 52.7399 112.467 53.5469 110.445 54.088C108.446 54.6227 106.868 54.92 105.776 54.92C105.04 54.92 104.323 54.8184 103.76 54.4898C103.114 54.1129 102.76 53.4883 102.76 52.744C102.76 51.7836 103.302 50.9687 104.032 50.3038C104.768 49.6326 105.816 49.0012 107.117 48.3938C109.727 47.1757 113.583 45.9533 118.643 44.7166L118.65 44.7148C124.469 43.3393 128.681 42.1262 131.327 41.0796ZM140.76 57.1649L140.769 57.1621C143.979 56.1992 147.704 55.0303 151.946 53.6551C152.283 51.9509 152.756 49.938 153.36 47.6196L153.365 47.6001L153.371 47.5808C154.05 45.3523 154.852 42.8342 155.779 40.027C151.557 40.3624 145.373 42.1328 137.158 45.4331C136.185 48.4842 135.156 53.0356 134.076 59.1148C135.989 58.604 138.216 57.9544 140.76 57.1649ZM133.886 60.1997C133.52 60.2957 133.166 60.3865 132.824 60.472C132.887 60.1075 132.949 59.7479 133.012 59.3932C134.175 52.7735 135.289 47.8691 136.352 44.68C145.044 41.1616 151.633 39.2686 156.119 39.001C156.488 38.979 156.843 38.968 157.184 38.968C157.071 39.3065 156.96 39.6411 156.851 39.9716C155.874 42.9221 155.033 45.5555 154.328 47.872C153.656 50.448 153.152 52.632 152.816 54.424C148.336 55.88 144.416 57.112 141.056 58.12C138.304 58.974 135.914 59.6672 133.886 60.1997Z" fill="#14819F"/>
<path d="M36.616 133.936C34.152 133.936 32.92 130.464 32.92 123.52C32.92 120.496 33.144 117.248 33.592 113.776C34.04 110.192 34.712 106.328 35.608 102.184L3.184 113.272C1.728 113.272 1 112.992 1 112.432C1 111.648 1.952 110.64 3.856 109.408C5.536 108.064 6.824 107.336 7.72 107.224C10.968 106.104 14.944 104.816 19.648 103.36C24.464 101.792 30.008 100.056 36.28 98.152C36.504 94.456 37.512 89.192 39.304 82.36L26.704 86.728C20.656 88.856 16.68 89.92 14.776 89.92C13.432 89.92 12.76 89.528 12.76 88.744C12.76 86.504 17.8 84.152 27.88 81.688C34.04 80.232 38.464 78.944 41.152 77.824L45.352 63.376C47.368 56.768 49.44 52.568 51.568 50.776H53.92L46.528 75.136C47.76 75.024 49.216 74.856 50.896 74.632C52.688 74.296 54.648 73.848 56.776 73.288L66.856 70.768L73.576 51.952C77.496 41.984 80.464 37 82.48 37C83.936 37 84.72 37.504 84.832 38.512L84.496 38.848C82.032 42.992 78.168 52.848 72.904 68.416L81.976 66.736C83.88 66.288 85.56 66.008 87.016 65.896C88.584 65.672 89.928 65.56 91.048 65.56C92.84 65.56 93.736 65.84 93.736 66.4C93.736 66.624 93.12 67.016 91.888 67.576C86.064 69.592 79.344 71.608 71.728 73.624C71.28 75.192 70.72 77.208 70.048 79.672C69.376 82.024 68.536 84.768 67.528 87.904C68.648 87.68 70.328 87.288 72.568 86.728C74.92 86.056 77.888 85.16 81.472 84.04C87.744 82.136 92.28 81.184 95.08 81.184C96.536 81.184 97.264 81.408 97.264 81.856C97.264 83.088 92.896 84.712 84.16 86.728C77.216 88.408 71.448 90.48 66.856 92.944C66.296 95.632 65.848 98.208 65.512 100.672C65.288 103.024 65.176 105.32 65.176 107.56C65.176 115.4 67.08 120.664 70.888 123.352C70.44 125.144 69.432 126.04 67.864 126.04C67.304 126.04 66.688 125.872 66.016 125.536C61.536 123.408 59.296 117.864 59.296 108.904C59.296 103.976 59.856 99.328 60.976 94.96C58.4 95.632 55.376 96.472 51.904 97.48C48.544 98.488 44.736 99.72 40.48 101.176C39.024 107.112 38.296 112.936 38.296 118.648C38.296 120.552 38.352 122.512 38.464 124.528C38.688 126.544 39.024 128.616 39.472 130.744L39.64 131.248C39.64 133.04 38.632 133.936 36.616 133.936ZM41.824 96.472C44.064 95.912 46.808 95.128 50.056 94.12C53.416 93.112 57.336 91.88 61.816 90.424C62.152 88.632 62.656 86.448 63.328 83.872C64.112 81.296 65.064 78.328 66.184 74.968C61.704 74.968 54.76 76.872 45.352 80.68C44.232 84.04 43.056 89.304 41.824 96.472Z" fill="#14819F"/>
<path fill-rule="evenodd" clip-rule="evenodd" d="M46.528 75.136C46.8698 75.1049 47.2289 75.0695 47.6052 75.0298C48.5852 74.9265 49.6821 74.7938 50.896 74.632C52.688 74.296 54.648 73.848 56.776 73.288L66.856 70.768L73.576 51.952C77.496 41.984 80.464 37 82.48 37C83.936 37 84.72 37.504 84.832 38.512L84.496 38.848C82.0898 42.8949 78.3483 52.3892 73.2718 67.3309C73.15 67.6895 73.0274 68.0512 72.904 68.416L81.976 66.736C83.88 66.288 85.56 66.008 87.016 65.896C88.584 65.672 89.928 65.56 91.048 65.56C92.84 65.56 93.736 65.84 93.736 66.4C93.736 66.624 93.12 67.016 91.888 67.576C86.064 69.592 79.344 71.608 71.728 73.624C71.28 75.192 70.72 77.208 70.048 79.672C69.4553 81.7465 68.7319 84.1259 67.8778 86.8103C67.7635 87.1694 67.6469 87.534 67.528 87.904C67.8557 87.8385 68.2314 87.7585 68.655 87.6642C69.6791 87.4362 70.9835 87.1241 72.568 86.728C74.92 86.056 77.888 85.16 81.472 84.04C87.744 82.136 92.28 81.184 95.08 81.184C96.536 81.184 97.264 81.408 97.264 81.856C97.264 83.088 92.896 84.712 84.16 86.728C77.216 88.408 71.448 90.48 66.856 92.944C66.296 95.632 65.848 98.208 65.512 100.672C65.288 103.024 65.176 105.32 65.176 107.56C65.176 115.4 67.08 120.664 70.888 123.352C70.44 125.144 69.432 126.04 67.864 126.04C67.304 126.04 66.688 125.872 66.016 125.536C61.536 123.408 59.296 117.864 59.296 108.904C59.296 104.389 59.766 100.109 60.7061 96.0646C60.7921 95.6944 60.8821 95.3262 60.976 94.96C60.6168 95.0537 60.2488 95.1507 59.8722 95.2509C57.5479 95.8695 54.8918 96.6126 51.904 97.48C48.544 98.488 44.736 99.72 40.48 101.176C39.024 107.112 38.296 112.936 38.296 118.648C38.296 120.552 38.352 122.512 38.464 124.528C38.688 126.544 39.024 128.616 39.472 130.744L39.64 131.248C39.64 133.04 38.632 133.936 36.616 133.936C34.152 133.936 32.92 130.464 32.92 123.52C32.92 120.496 33.144 117.248 33.592 113.776C33.9987 110.523 34.5899 107.039 35.3658 103.324C35.4446 102.946 35.5253 102.566 35.608 102.184L3.184 113.272C1.728 113.272 1 112.992 1 112.432C1 111.648 1.952 110.64 3.856 109.408C5.536 108.064 6.824 107.336 7.72 107.224C10.968 106.104 14.944 104.816 19.648 103.36C24.464 101.792 30.008 100.056 36.28 98.152C36.4911 94.6685 37.3987 89.7921 39.0027 83.5228C39.1005 83.1404 39.201 82.7528 39.304 82.36L26.704 86.728C20.656 88.856 16.68 89.92 14.776 89.92C13.432 89.92 12.76 89.528 12.76 88.744C12.76 86.504 17.8 84.152 27.88 81.688C34.04 80.232 38.464 78.944 41.152 77.824L45.352 63.376C47.368 56.768 49.44 52.568 51.568 50.776C51.568 50.776 53.0015 50.776 53.92 50.776C51.0332 60.2892 46.528 75.136 46.528 75.136ZM40.327 77.0796L44.3954 63.0842C45.4126 59.7503 46.4529 56.993 47.5212 54.8276C48.5821 52.6771 49.7059 51.0368 50.9239 50.0111C50.9239 50.0111 51.0827 49.8523 51.203 49.776C51.6835 49.4712 52.6511 49.2735 53.16 49.528C54.16 50.028 53.92 50.776 53.92 50.776C51.5772 59.8416 47.9208 73.99 47.9208 73.99C48.7734 73.896 49.7122 73.7808 50.7376 73.6443C52.4948 73.314 54.4225 72.8733 56.5215 72.3209L56.5334 72.3178L66.0943 69.9277L72.6396 51.6008L72.6454 51.586C74.6116 46.5862 76.357 42.7886 77.8828 40.2263C78.6437 38.9486 79.3754 37.9344 80.0824 37.2274C80.7631 36.5467 81.571 36 82.48 36C83.3006 36 84.0805 36.1381 84.7008 36.5368C85.3706 36.9674 85.74 37.6283 85.8259 38.4016L85.879 38.8793L85.2927 39.4655C82.9742 43.4197 79.3456 52.599 74.3991 67.1221L81.7704 65.7571C83.6855 65.3074 85.3995 65.0196 86.9066 64.9015C88.4906 64.6763 89.8737 64.56 91.048 64.56C91.9709 64.56 92.766 64.6292 93.3623 64.8155C93.9031 64.9845 94.736 65.4182 94.736 66.4C94.736 66.881 94.4363 67.1979 94.3276 67.3066C94.176 67.4582 93.9911 67.591 93.8109 67.7057C93.4433 67.9396 92.931 68.2004 92.3018 68.4864L92.2593 68.5057L92.2151 68.521C86.5033 70.4982 79.9422 72.4725 72.5342 74.4446C72.1156 75.9209 71.6085 77.7508 71.0128 79.9351L71.0096 79.9467C70.4548 81.8887 69.7869 84.0931 69.0065 86.5594C69.9159 86.3507 71.0162 86.0851 72.3094 85.7619C74.648 85.0935 77.6021 84.2016 81.1737 83.0855L81.1815 83.0831C87.4556 81.1785 92.1175 80.184 95.08 80.184C95.8344 80.184 96.5017 80.2392 97.0121 80.3962C97.4594 80.5339 98.264 80.9213 98.264 81.856C98.264 82.3183 98.0579 82.6959 97.8321 82.9709C97.607 83.2452 97.3112 83.482 96.9923 83.6905C96.3535 84.1081 95.4529 84.5202 94.3365 84.9353C92.0915 85.77 88.7666 86.6911 84.39 87.7012C77.7113 89.3173 72.1677 91.2903 67.7402 93.6072C67.2301 96.1015 66.8187 98.4946 66.5056 100.787C66.2857 103.102 66.176 105.36 66.176 107.56C66.176 115.296 68.0621 120.133 71.4647 122.535L72.0243 122.93L71.8582 123.595C71.6029 124.616 71.1611 125.493 70.4604 126.115C69.744 126.752 68.8506 127.04 67.864 127.04C67.1088 127.04 66.3419 126.815 65.58 126.436C60.5378 124.036 58.296 117.924 58.296 108.904C58.296 104.51 58.7344 100.327 59.6148 96.3548C57.425 96.9425 54.9492 97.6372 52.1865 98.4393C48.9797 99.4014 45.3588 100.57 41.3229 101.945C39.9704 107.624 39.296 113.192 39.296 118.648C39.296 120.524 39.3509 122.456 39.4609 124.445C39.6792 126.4 40.0049 128.413 40.4388 130.482L40.64 131.086V131.248C40.64 132.331 40.3301 133.317 39.5484 134.011C38.7891 134.686 37.751 134.936 36.616 134.936C35.7375 134.936 34.9558 134.616 34.3143 134.014C33.6956 133.433 33.2404 132.621 32.9016 131.666C32.2273 129.766 31.92 127.024 31.92 123.52C31.92 120.448 32.1475 117.157 32.6 113.65C32.9892 110.537 33.5451 107.22 34.2668 103.7L3.35026 114.272H3.184C2.42075 114.272 1.7258 114.203 1.18702 113.995C0.91019 113.889 0.613755 113.723 0.38081 113.454C0.130929 113.166 0 112.811 0 112.432C0 111.649 0.458696 110.961 0.986987 110.401C1.53347 109.823 2.30764 109.222 3.27049 108.596C4.1199 107.919 4.89438 107.377 5.58994 106.983C6.24328 106.614 6.88201 106.344 7.48347 106.248C10.7266 105.131 14.6813 103.851 19.3456 102.407C23.9985 100.892 29.3274 99.2213 35.3316 97.3951C35.6082 94.01 36.4609 89.5095 37.8713 83.9151L27.0359 87.6713L27.0349 87.6717C23.9989 88.7399 21.4667 89.5469 19.4445 90.088C17.4464 90.6227 15.8683 90.92 14.776 90.92C14.0395 90.92 13.3234 90.8184 12.7601 90.4898C12.114 90.1129 11.76 89.4883 11.76 88.744C11.76 87.7836 12.3017 86.9687 13.0315 86.3038C13.7682 85.6326 14.8156 85.0012 16.1171 84.3938C18.7274 83.1757 22.5834 81.9533 27.6425 80.7166L27.65 80.7148C33.4694 79.3393 37.6813 78.1262 40.327 77.0796ZM49.7596 93.1649L49.7686 93.1621C52.9786 92.1992 56.7041 91.0303 60.9459 89.6551C61.2834 87.9509 61.7556 85.938 62.3604 83.6196L62.3655 83.6001L62.3713 83.5808C63.0496 81.3523 63.8523 78.8342 64.7791 76.027C60.5574 76.3624 54.373 78.1328 46.1582 81.4331C45.1847 84.4842 44.1559 89.0356 43.0762 95.1148C44.9886 94.604 47.2158 93.9544 49.7596 93.1649ZM42.8858 96.1997C42.5201 96.2957 42.1662 96.3865 41.824 96.472C41.8867 96.1075 41.9492 95.7479 42.0115 95.3932C43.1755 88.7735 44.289 83.8691 45.352 80.68C54.0445 77.1616 60.6335 75.2686 65.119 75.001C65.4883 74.979 65.8433 74.968 66.184 74.968C66.0712 75.3065 65.96 75.6411 65.8506 75.9716C64.8739 78.9221 64.033 81.5555 63.328 83.872C62.656 86.448 62.152 88.632 61.816 90.424C57.336 91.88 53.416 93.112 50.056 94.12C47.3042 94.974 44.9141 95.6672 42.8858 96.1997Z" fill="#14819F"/>
<path d="M78.616 188.936C76.152 188.936 74.92 185.464 74.92 178.52C74.92 175.496 75.144 172.248 75.592 168.776C76.04 165.192 76.712 161.328 77.608 157.184L45.184 168.272C43.728 168.272 43 167.992 43 167.432C43 166.648 43.952 165.64 45.856 164.408C47.536 163.064 48.824 162.336 49.72 162.224C52.968 161.104 56.944 159.816 61.648 158.36C66.464 156.792 72.008 155.056 78.28 153.152C78.504 149.456 79.512 144.192 81.304 137.36L68.704 141.728C62.656 143.856 58.68 144.92 56.776 144.92C55.432 144.92 54.76 144.528 54.76 143.744C54.76 141.504 59.8 139.152 69.88 136.688C76.04 135.232 80.464 133.944 83.152 132.824L87.352 118.376C89.368 111.768 91.44 107.568 93.568 105.776H95.92L88.528 130.136C89.76 130.024 91.216 129.856 92.896 129.632C94.688 129.296 96.648 128.848 98.776 128.288L108.856 125.768L115.576 106.952C119.496 96.984 122.464 92 124.48 92C125.936 92 126.72 92.504 126.832 93.512L126.496 93.848C124.032 97.992 120.168 107.848 114.904 123.416L123.976 121.736C125.88 121.288 127.56 121.008 129.016 120.896C130.584 120.672 131.928 120.56 133.048 120.56C134.84 120.56 135.736 120.84 135.736 121.4C135.736 121.624 135.12 122.016 133.888 122.576C128.064 124.592 121.344 126.608 113.728 128.624C113.28 130.192 112.72 132.208 112.048 134.672C111.376 137.024 110.536 139.768 109.528 142.904C110.648 142.68 112.328 142.288 114.568 141.728C116.92 141.056 119.888 140.16 123.472 139.04C129.744 137.136 134.28 136.184 137.08 136.184C138.536 136.184 139.264 136.408 139.264 136.856C139.264 138.088 134.896 139.712 126.16 141.728C119.216 143.408 113.448 145.48 108.856 147.944C108.296 150.632 107.848 153.208 107.512 155.672C107.288 158.024 107.176 160.32 107.176 162.56C107.176 170.4 109.08 175.664 112.888 178.352C112.44 180.144 111.432 181.04 109.864 181.04C109.304 181.04 108.688 180.872 108.016 180.536C103.536 178.408 101.296 172.864 101.296 163.904C101.296 158.976 101.856 154.328 102.976 149.96C100.4 150.632 97.376 151.472 93.904 152.48C90.544 153.488 86.736 154.72 82.48 156.176C81.024 162.112 80.296 167.936 80.296 173.648C80.296 175.552 80.352 177.512 80.464 179.528C80.688 181.544 81.024 183.616 81.472 185.744L81.64 186.248C81.64 188.04 80.632 188.936 78.616 188.936ZM83.824 151.472C86.064 150.912 88.808 150.128 92.056 149.12C95.416 148.112 99.336 146.88 103.816 145.424C104.152 143.632 104.656 141.448 105.328 138.872C106.112 136.296 107.064 133.328 108.184 129.968C103.704 129.968 96.76 131.872 87.352 135.68C86.232 139.04 85.056 144.304 83.824 151.472Z" fill="#14819F"/>
<path fill-rule="evenodd" clip-rule="evenodd" d="M88.528 130.136C88.8698 130.105 89.2289 130.07 89.6052 130.03C90.5852 129.926 91.6821 129.794 92.896 129.632C94.688 129.296 96.648 128.848 98.776 128.288L108.856 125.768L115.576 106.952C119.496 96.984 122.464 92 124.48 92C125.936 92 126.72 92.504 126.832 93.512L126.496 93.848C124.09 97.8949 120.348 107.389 115.272 122.331C115.15 122.689 115.027 123.051 114.904 123.416L123.976 121.736C125.88 121.288 127.56 121.008 129.016 120.896C130.584 120.672 131.928 120.56 133.048 120.56C134.84 120.56 135.736 120.84 135.736 121.4C135.736 121.624 135.12 122.016 133.888 122.576C128.064 124.592 121.344 126.608 113.728 128.624C113.28 130.192 112.72 132.208 112.048 134.672C111.455 136.746 110.732 139.126 109.878 141.81C109.764 142.169 109.647 142.534 109.528 142.904C109.856 142.838 110.231 142.759 110.655 142.664C111.679 142.436 112.983 142.124 114.568 141.728C116.92 141.056 119.888 140.16 123.472 139.04C129.744 137.136 134.28 136.184 137.08 136.184C138.536 136.184 139.264 136.408 139.264 136.856C139.264 138.088 134.896 139.712 126.16 141.728C119.216 143.408 113.448 145.48 108.856 147.944C108.296 150.632 107.848 153.208 107.512 155.672C107.288 158.024 107.176 160.32 107.176 162.56C107.176 170.4 109.08 175.664 112.888 178.352C112.44 180.144 111.432 181.04 109.864 181.04C109.304 181.04 108.688 180.872 108.016 180.536C103.536 178.408 101.296 172.864 101.296 163.904C101.296 159.389 101.766 155.109 102.706 151.065C102.792 150.694 102.882 150.326 102.976 149.96C102.617 150.054 102.249 150.151 101.872 150.251C99.5479 150.87 96.8918 151.613 93.904 152.48C90.544 153.488 86.736 154.72 82.48 156.176C81.024 162.112 80.296 167.936 80.296 173.648C80.296 175.552 80.352 177.512 80.464 179.528C80.688 181.544 81.024 183.616 81.472 185.744L81.64 186.248C81.64 188.04 80.632 188.936 78.616 188.936C76.152 188.936 74.92 185.464 74.92 178.52C74.92 175.496 75.144 172.248 75.592 168.776C75.9987 165.523 76.5899 162.039 77.3658 158.324C77.4446 157.946 77.5253 157.566 77.608 157.184L45.184 168.272C43.728 168.272 43 167.992 43 167.432C43 166.648 43.952 165.64 45.856 164.408C47.536 163.064 48.824 162.336 49.72 162.224C52.968 161.104 56.944 159.816 61.648 158.36C66.464 156.792 72.008 155.056 78.28 153.152C78.4911 149.668 79.3987 144.792 81.0027 138.523C81.1005 138.14 81.201 137.753 81.304 137.36L68.704 141.728C62.656 143.856 58.68 144.92 56.776 144.92C55.432 144.92 54.76 144.528 54.76 143.744C54.76 141.504 59.8 139.152 69.88 136.688C76.04 135.232 80.464 133.944 83.152 132.824L87.352 118.376C89.368 111.768 91.44 107.568 93.568 105.776C93.568 105.776 95.0015 105.776 95.92 105.776C93.0332 115.289 88.528 130.136 88.528 130.136ZM82.327 132.08L86.3954 118.084C87.4126 114.75 88.4529 111.993 89.5212 109.828C90.5821 107.677 91.7059 106.037 92.9239 105.011C92.9239 105.011 93.0827 104.852 93.203 104.776C93.6835 104.471 94.6511 104.274 95.16 104.528C96.16 105.028 95.92 105.776 95.92 105.776C93.5772 114.842 89.9208 128.99 89.9208 128.99C90.7734 128.896 91.7122 128.781 92.7376 128.644C94.4948 128.314 96.4225 127.873 98.5215 127.321L98.5334 127.318L108.094 124.928L114.64 106.601L114.645 106.586C116.612 101.586 118.357 97.7886 119.883 95.2263C120.644 93.9486 121.375 92.9344 122.082 92.2274C122.763 91.5467 123.571 91 124.48 91C125.301 91 126.081 91.1381 126.701 91.5368C127.371 91.9674 127.74 92.6283 127.826 93.4016L127.879 93.8793L127.293 94.4655C124.974 98.4197 121.346 107.599 116.399 122.122L123.77 120.757C125.686 120.307 127.399 120.02 128.907 119.901C130.491 119.676 131.874 119.56 133.048 119.56C133.971 119.56 134.766 119.629 135.362 119.816C135.903 119.985 136.736 120.418 136.736 121.4C136.736 121.881 136.436 122.198 136.328 122.307C136.176 122.458 135.991 122.591 135.811 122.706C135.443 122.94 134.931 123.2 134.302 123.486L134.259 123.506L134.215 123.521C128.503 125.498 121.942 127.473 114.534 129.445C114.116 130.921 113.608 132.751 113.013 134.935L113.01 134.947C112.455 136.889 111.787 139.093 111.007 141.559C111.916 141.351 113.016 141.085 114.309 140.762C116.648 140.093 119.602 139.202 123.174 138.086L123.182 138.083C129.456 136.178 134.117 135.184 137.08 135.184C137.834 135.184 138.502 135.239 139.012 135.396C139.459 135.534 140.264 135.921 140.264 136.856C140.264 137.318 140.058 137.696 139.832 137.971C139.607 138.245 139.311 138.482 138.992 138.69C138.353 139.108 137.453 139.52 136.336 139.935C134.091 140.77 130.767 141.691 126.39 142.701C119.711 144.317 114.168 146.29 109.74 148.607C109.23 151.101 108.819 153.495 108.506 155.787C108.286 158.102 108.176 160.36 108.176 162.56C108.176 170.296 110.062 175.133 113.465 177.535L114.024 177.93L113.858 178.595C113.603 179.616 113.161 180.493 112.46 181.115C111.744 181.752 110.851 182.04 109.864 182.04C109.109 182.04 108.342 181.815 107.58 181.436C102.538 179.036 100.296 172.924 100.296 163.904C100.296 159.51 100.734 155.327 101.615 151.355C99.425 151.943 96.9492 152.637 94.1865 153.439C90.9797 154.401 87.3588 155.57 83.3229 156.945C81.9704 162.624 81.296 168.192 81.296 173.648C81.296 175.524 81.3509 177.456 81.4609 179.445C81.6792 181.4 82.0049 183.413 82.4388 185.482L82.64 186.086V186.248C82.64 187.331 82.3301 188.317 81.5484 189.011C80.7891 189.686 79.751 189.936 78.616 189.936C77.7375 189.936 76.9558 189.616 76.3143 189.014C75.6956 188.433 75.2404 187.621 74.9016 186.666C74.2273 184.766 73.92 182.024 73.92 178.52C73.92 175.448 74.1475 172.157 74.6 168.65C74.9892 165.537 75.5451 162.22 76.2668 158.7L45.3503 169.272H45.184C44.4208 169.272 43.7258 169.203 43.187 168.995C42.9102 168.889 42.6138 168.723 42.3808 168.454C42.1309 168.166 42 167.811 42 167.432C42 166.649 42.4587 165.961 42.987 165.401C43.5335 164.823 44.3076 164.222 45.2705 163.596C46.1199 162.919 46.8944 162.377 47.5899 161.983C48.2433 161.614 48.882 161.344 49.4835 161.248C52.7266 160.131 56.6813 158.851 61.3456 157.407C65.9985 155.892 71.3274 154.221 77.3316 152.395C77.6082 149.01 78.4609 144.509 79.8713 138.915L69.0359 142.671L69.0349 142.672C65.9989 143.74 63.4667 144.547 61.4445 145.088C59.4464 145.623 57.8683 145.92 56.776 145.92C56.0395 145.92 55.3234 145.818 54.7601 145.49C54.114 145.113 53.76 144.488 53.76 143.744C53.76 142.784 54.3017 141.969 55.0315 141.304C55.7682 140.633 56.8156 140.001 58.1171 139.394C60.7274 138.176 64.5834 136.953 69.6425 135.717L69.65 135.715C75.4694 134.339 79.6813 133.126 82.327 132.08ZM91.7596 148.165L91.7686 148.162C94.9786 147.199 98.7041 146.03 102.946 144.655C103.283 142.951 103.756 140.938 104.36 138.62L104.365 138.6L104.371 138.581C105.05 136.352 105.852 133.834 106.779 131.027C102.557 131.362 96.373 133.133 88.1582 136.433C87.1847 139.484 86.1559 144.036 85.0762 150.115C86.9886 149.604 89.2158 148.954 91.7596 148.165ZM84.8858 151.2C84.5201 151.296 84.1662 151.386 83.824 151.472C83.8867 151.107 83.9492 150.748 84.0115 150.393C85.1755 143.774 86.289 138.869 87.352 135.68C96.0445 132.162 102.633 130.269 107.119 130.001C107.488 129.979 107.843 129.968 108.184 129.968C108.071 130.307 107.96 130.641 107.851 130.972C106.874 133.922 106.033 136.556 105.328 138.872C104.656 141.448 104.152 143.632 103.816 145.424C99.336 146.88 95.416 148.112 92.056 149.12C89.3042 149.974 86.9141 150.667 84.8858 151.2Z" fill="#14819F"/>
<path d="M175.02 213V208.652C177.535 208.16 179.641 207.641 181.336 207.094C183.031 206.547 184.371 206.027 185.355 205.535C186.395 204.988 187.133 204.496 187.57 204.059C188.008 203.566 188.227 203.129 188.227 202.746V117.844H164.93C164.109 117.844 163.344 118.035 162.633 118.418C161.977 118.801 161.266 119.566 160.5 120.715C159.789 121.809 158.996 123.367 158.121 125.391C157.246 127.359 156.207 129.93 155.004 133.102L150.656 131.379C150.766 129.793 150.93 128.043 151.148 126.129C151.367 124.16 151.586 122.219 151.805 120.305C152.078 118.336 152.352 116.422 152.625 114.562C152.953 112.703 153.254 111.062 153.527 109.641H238.02L240.727 111.855C240.672 113.277 240.562 114.836 240.398 116.531C240.234 118.172 240.016 119.922 239.742 121.781C239.523 123.586 239.25 125.418 238.922 127.277C238.648 129.137 238.348 130.914 238.02 132.609H233.508C232.961 130.094 232.496 127.906 232.113 126.047C231.73 124.188 231.293 122.656 230.801 121.453C230.309 120.195 229.68 119.293 228.914 118.746C228.203 118.145 227.273 117.844 226.125 117.844H203.812V202.746C203.812 203.074 204.031 203.484 204.469 203.977C204.906 204.414 205.645 204.906 206.684 205.453C207.723 206 209.09 206.547 210.785 207.094C212.48 207.641 214.586 208.16 217.102 208.652V213H175.02ZM298.969 213V208.652C302.906 207.613 305.75 206.711 307.5 205.945C309.305 205.18 310.207 204.414 310.207 203.648V162.715C310.207 159.379 310.016 156.672 309.633 154.594C309.25 152.461 308.648 150.793 307.828 149.59C307.008 148.332 305.941 147.484 304.629 147.047C303.371 146.555 301.867 146.309 300.117 146.309C296.508 146.309 292.488 147.922 288.059 151.148C283.684 154.375 279.172 159.16 274.523 165.504V203.648C274.523 204.469 275.508 205.316 277.477 206.191C279.5 207.066 282.289 207.887 285.844 208.652V213H248.52V208.652C252.129 207.723 254.891 206.902 256.805 206.191C258.773 205.426 259.758 204.578 259.758 203.648V107.344C259.758 105.047 259.648 103.27 259.43 102.012C259.266 100.699 258.801 99.6875 258.035 98.9766C257.324 98.2656 256.203 97.7734 254.672 97.5C253.195 97.1719 251.145 96.8438 248.52 96.5156V92.4141C251.09 91.9766 253.387 91.5391 255.41 91.1016C257.488 90.6641 259.402 90.1992 261.152 89.707C262.957 89.1602 264.652 88.5859 266.238 87.9844C267.879 87.3828 269.574 86.6719 271.324 85.8516L274.523 88.8047V154.184C277.148 151.012 279.91 148.195 282.809 145.734C285.707 143.219 288.578 141.113 291.422 139.418C294.266 137.723 297 136.438 299.625 135.562C302.305 134.688 304.711 134.25 306.844 134.25C309.195 134.25 311.465 134.633 313.652 135.398C315.84 136.109 317.754 137.23 319.395 138.762C321.09 140.293 322.43 142.262 323.414 144.668C324.453 147.02 324.973 149.863 324.973 153.199V203.648C324.973 204.031 325.164 204.414 325.547 204.797C325.93 205.125 326.559 205.48 327.434 205.863C328.309 206.246 329.457 206.684 330.879 207.176C332.355 207.613 334.16 208.105 336.293 208.652V213H298.969ZM404.543 137.449C405.035 137.777 405.227 138.871 405.117 140.73C405.008 142.535 404.707 144.641 404.215 147.047C403.777 149.453 403.203 151.887 402.492 154.348C401.781 156.754 401.098 158.695 400.441 160.172H396.094C395.492 155.742 394.398 152.434 392.812 150.246C391.227 148.059 389.285 146.965 386.988 146.965C385.84 146.965 384.5 147.375 382.969 148.195C381.492 149.016 379.934 150.355 378.293 152.215C376.652 154.02 375.012 156.398 373.371 159.352C371.785 162.305 370.281 165.941 368.859 170.262V203.648C368.859 204.469 369.926 205.316 372.059 206.191C374.191 207.066 377.828 207.887 382.969 208.652V213H342.855V208.652C346.465 207.832 349.227 207.039 351.141 206.273C353.109 205.453 354.094 204.578 354.094 203.648V157.301C354.094 155.496 354.039 153.992 353.93 152.789C353.82 151.531 353.684 150.52 353.52 149.754C353.355 148.988 353.137 148.387 352.863 147.949C352.645 147.512 352.426 147.156 352.207 146.883C351.824 146.5 351.414 146.199 350.977 145.98C350.539 145.707 349.965 145.488 349.254 145.324C348.543 145.16 347.668 145.051 346.629 144.996C345.645 144.887 344.387 144.777 342.855 144.668V140.566C345.043 140.129 347.094 139.691 349.008 139.254C350.922 138.816 352.754 138.352 354.504 137.859C356.254 137.367 357.949 136.848 359.59 136.301C361.285 135.699 362.953 135.016 364.594 134.25L367.629 137.285L368.695 153.691C370.172 150.957 371.785 148.414 373.535 146.062C375.34 143.711 377.227 141.66 379.195 139.91C381.219 138.16 383.324 136.793 385.512 135.809C387.754 134.77 390.051 134.25 392.402 134.25C394.316 134.25 396.312 134.496 398.391 134.988C400.469 135.48 402.52 136.301 404.543 137.449ZM448.84 143.273C446.105 143.273 443.617 143.82 441.375 144.914C439.188 145.953 437.273 147.457 435.633 149.426C433.992 151.34 432.625 153.664 431.531 156.398C430.492 159.133 429.754 162.141 429.316 165.422H461.801C463.059 165.422 463.879 165.23 464.262 164.848C464.699 164.41 464.918 163.617 464.918 162.469C464.918 160.938 464.699 159.078 464.262 156.891C463.824 154.703 463.004 152.598 461.801 150.574C460.652 148.551 459.039 146.828 456.961 145.406C454.883 143.984 452.176 143.273 448.84 143.273ZM480.422 167.473C479.438 168.566 477.988 169.66 476.074 170.754C474.16 171.793 472.328 172.668 470.578 173.379H428.906C428.961 177.535 429.535 181.473 430.629 185.191C431.723 188.855 433.254 192.055 435.223 194.789C437.191 197.523 439.57 199.711 442.359 201.352C445.203 202.938 448.402 203.73 451.957 203.73C453.652 203.73 455.293 203.621 456.879 203.402C458.52 203.184 460.27 202.719 462.129 202.008C463.988 201.242 466.066 200.148 468.363 198.727C470.66 197.305 473.367 195.391 476.484 192.984C477.195 193.367 477.879 194.023 478.535 194.953C479.191 195.883 479.656 196.566 479.93 197.004C476.211 200.941 472.93 204.113 470.086 206.52C467.242 208.926 464.535 210.812 461.965 212.18C459.449 213.492 456.934 214.367 454.418 214.805C451.957 215.242 449.25 215.461 446.297 215.461C441.922 215.461 437.766 214.559 433.828 212.754C429.945 210.895 426.527 208.297 423.574 204.961C420.621 201.625 418.27 197.605 416.52 192.902C414.77 188.199 413.895 182.949 413.895 177.152C413.895 173.488 414.277 169.906 415.043 166.406C415.863 162.906 417.012 159.625 418.488 156.562C420.02 153.5 421.879 150.656 424.066 148.031C426.254 145.406 428.77 143.109 431.613 141.141C432.926 140.211 434.375 139.336 435.961 138.516C437.547 137.695 439.188 136.984 440.883 136.383C442.633 135.727 444.41 135.207 446.215 134.824C448.02 134.441 449.742 134.25 451.383 134.25C454.938 134.25 458.137 134.715 460.98 135.645C463.824 136.574 466.312 137.859 468.445 139.5C470.633 141.086 472.465 142.973 473.941 145.16C475.473 147.348 476.703 149.672 477.633 152.133C478.617 154.594 479.328 157.137 479.766 159.762C480.203 162.387 480.422 164.957 480.422 167.473ZM527.754 143.273C525.02 143.273 522.531 143.82 520.289 144.914C518.102 145.953 516.188 147.457 514.547 149.426C512.906 151.34 511.539 153.664 510.445 156.398C509.406 159.133 508.668 162.141 508.23 165.422H540.715C541.973 165.422 542.793 165.23 543.176 164.848C543.613 164.41 543.832 163.617 543.832 162.469C543.832 160.938 543.613 159.078 543.176 156.891C542.738 154.703 541.918 152.598 540.715 150.574C539.566 148.551 537.953 146.828 535.875 145.406C533.797 143.984 531.09 143.273 527.754 143.273ZM559.336 167.473C558.352 168.566 556.902 169.66 554.988 170.754C553.074 171.793 551.242 172.668 549.492 173.379H507.82C507.875 177.535 508.449 181.473 509.543 185.191C510.637 188.855 512.168 192.055 514.137 194.789C516.105 197.523 518.484 199.711 521.273 201.352C524.117 202.938 527.316 203.73 530.871 203.73C532.566 203.73 534.207 203.621 535.793 203.402C537.434 203.184 539.184 202.719 541.043 202.008C542.902 201.242 544.98 200.148 547.277 198.727C549.574 197.305 552.281 195.391 555.398 192.984C556.109 193.367 556.793 194.023 557.449 194.953C558.105 195.883 558.57 196.566 558.844 197.004C555.125 200.941 551.844 204.113 549 206.52C546.156 208.926 543.449 210.812 540.879 212.18C538.363 213.492 535.848 214.367 533.332 214.805C530.871 215.242 528.164 215.461 525.211 215.461C520.836 215.461 516.68 214.559 512.742 212.754C508.859 210.895 505.441 208.297 502.488 204.961C499.535 201.625 497.184 197.605 495.434 192.902C493.684 188.199 492.809 182.949 492.809 177.152C492.809 173.488 493.191 169.906 493.957 166.406C494.777 162.906 495.926 159.625 497.402 156.562C498.934 153.5 500.793 150.656 502.98 148.031C505.168 145.406 507.684 143.109 510.527 141.141C511.84 140.211 513.289 139.336 514.875 138.516C516.461 137.695 518.102 136.984 519.797 136.383C521.547 135.727 523.324 135.207 525.129 134.824C526.934 134.441 528.656 134.25 530.297 134.25C533.852 134.25 537.051 134.715 539.895 135.645C542.738 136.574 545.227 137.859 547.359 139.5C549.547 141.086 551.379 142.973 552.855 145.16C554.387 147.348 555.617 149.672 556.547 152.133C557.531 154.594 558.242 157.137 558.68 159.762C559.117 162.387 559.336 164.957 559.336 167.473Z" fill="#9EBED1"/>
<path d="M120.895 288.074C120.895 290.535 120.539 293.051 119.828 295.621C119.172 298.191 118.133 300.734 116.711 303.25C115.344 305.711 113.621 308.062 111.543 310.305C109.465 312.492 107.004 314.406 104.16 316.047C101.371 317.688 98.1992 319 94.6445 319.984C91.1445 320.969 87.2344 321.461 82.9141 321.461C81.0547 321.461 78.9766 321.27 76.6797 320.887C74.4375 320.504 72.1133 319.957 69.707 319.246C67.3555 318.59 65.0039 317.77 62.6523 316.785C60.3555 315.801 58.25 314.68 56.3359 313.422C55.9531 313.203 55.6523 312.219 55.4336 310.469C55.2695 308.719 55.1875 306.668 55.1875 304.316C55.1875 301.965 55.2969 299.559 55.5156 297.098C55.7344 294.582 56.0898 292.477 56.582 290.781L60.7656 291.191C62.0234 294.418 63.582 297.262 65.4414 299.723C67.3008 302.184 69.3516 304.262 71.5938 305.957C73.8906 307.598 76.3516 308.855 78.9766 309.73C81.6016 310.551 84.3086 310.961 87.0977 310.961C89.5586 310.961 91.9922 310.523 94.3984 309.648C96.8047 308.719 98.9648 307.461 100.879 305.875C102.848 304.234 104.406 302.32 105.555 300.133C106.758 297.891 107.359 295.457 107.359 292.832C107.359 289.496 106.621 286.625 105.145 284.219C103.668 281.812 101.727 279.68 99.3203 277.82C96.9141 275.906 94.1797 274.211 91.1172 272.734C88.0547 271.203 84.9102 269.699 81.6836 268.223C78.457 266.746 75.3125 265.188 72.25 263.547C69.1875 261.852 66.4531 259.938 64.0469 257.805C61.6406 255.617 59.6992 253.074 58.2227 250.176C56.7461 247.277 56.0078 243.832 56.0078 239.84C56.0078 237.27 56.6367 234.453 57.8945 231.391C59.1523 228.273 61.1484 225.375 63.8828 222.695C66.6172 219.961 70.1445 217.691 74.4648 215.887C78.8398 214.082 84.1445 213.18 90.3789 213.18C93.0039 213.18 95.6289 213.371 98.2539 213.754C100.879 214.137 103.312 214.656 105.555 215.312C107.797 215.969 109.82 216.762 111.625 217.691C113.43 218.621 114.824 219.633 115.809 220.727C116.191 221.055 116.191 221.793 115.809 222.941C115.426 224.035 114.852 225.266 114.086 226.633C113.32 227.945 112.473 229.23 111.543 230.488C110.613 231.746 109.82 232.676 109.164 233.277L105.391 232.785C103.969 230.762 102.438 229.039 100.797 227.617C99.1562 226.195 97.4883 225.074 95.793 224.254C94.0977 223.379 92.375 222.75 90.625 222.367C88.9297 221.984 87.3164 221.793 85.7852 221.793C82.832 221.793 80.3164 222.23 78.2383 223.105C76.1602 223.926 74.4375 225.02 73.0703 226.387C71.7031 227.699 70.6914 229.176 70.0352 230.816C69.4336 232.457 69.1328 234.043 69.1328 235.574C69.1328 238.145 69.8711 240.441 71.3477 242.465C72.8242 244.434 74.7656 246.266 77.1719 247.961C79.6328 249.602 82.3945 251.188 85.457 252.719C88.5742 254.25 91.7461 255.836 94.9727 257.477C98.2539 259.062 101.426 260.812 104.488 262.727C107.605 264.586 110.367 266.719 112.773 269.125C115.234 271.531 117.203 274.293 118.68 277.41C120.156 280.473 120.895 284.027 120.895 288.074ZM182.828 319V314.652C186.766 313.613 189.609 312.711 191.359 311.945C193.164 311.18 194.066 310.414 194.066 309.648V268.715C194.066 265.379 193.875 262.672 193.492 260.594C193.109 258.461 192.508 256.793 191.688 255.59C190.867 254.332 189.801 253.484 188.488 253.047C187.23 252.555 185.727 252.309 183.977 252.309C180.367 252.309 176.348 253.922 171.918 257.148C167.543 260.375 163.031 265.16 158.383 271.504V309.648C158.383 310.469 159.367 311.316 161.336 312.191C163.359 313.066 166.148 313.887 169.703 314.652V319H132.379V314.652C135.988 313.723 138.75 312.902 140.664 312.191C142.633 311.426 143.617 310.578 143.617 309.648V213.344C143.617 211.047 143.508 209.27 143.289 208.012C143.125 206.699 142.66 205.688 141.895 204.977C141.184 204.266 140.062 203.773 138.531 203.5C137.055 203.172 135.004 202.844 132.379 202.516V198.414C134.949 197.977 137.246 197.539 139.27 197.102C141.348 196.664 143.262 196.199 145.012 195.707C146.816 195.16 148.512 194.586 150.098 193.984C151.738 193.383 153.434 192.672 155.184 191.852L158.383 194.805V260.184C161.008 257.012 163.77 254.195 166.668 251.734C169.566 249.219 172.438 247.113 175.281 245.418C178.125 243.723 180.859 242.438 183.484 241.562C186.164 240.688 188.57 240.25 190.703 240.25C193.055 240.25 195.324 240.633 197.512 241.398C199.699 242.109 201.613 243.23 203.254 244.762C204.949 246.293 206.289 248.262 207.273 250.668C208.312 253.02 208.832 255.863 208.832 259.199V309.648C208.832 310.031 209.023 310.414 209.406 310.797C209.789 311.125 210.418 311.48 211.293 311.863C212.168 312.246 213.316 312.684 214.738 313.176C216.215 313.613 218.02 314.105 220.152 314.652V319H182.828ZM252.883 309.566C255.727 309.566 258.816 308.828 262.152 307.352C265.543 305.82 269.316 303.277 273.473 299.723V279.543C269.316 280.199 265.871 280.855 263.137 281.512C260.402 282.168 258.133 282.852 256.328 283.562C254.523 284.219 253.074 284.93 251.98 285.695C250.941 286.406 250.012 287.199 249.191 288.074C247.77 289.551 246.621 291.191 245.746 292.996C244.871 294.801 244.434 296.934 244.434 299.395C244.434 301.473 244.734 303.168 245.336 304.48C245.938 305.793 246.676 306.832 247.551 307.598C248.426 308.363 249.355 308.883 250.34 309.156C251.324 309.43 252.172 309.566 252.883 309.566ZM300.789 311.453C296.141 314.68 291.984 317.168 288.32 318.918C284.711 320.613 282.059 321.461 280.363 321.461C278.449 321.461 276.863 320.23 275.605 317.77C274.402 315.309 273.691 311.918 273.473 307.598C271.012 310.113 268.551 312.246 266.09 313.996C263.629 315.746 261.223 317.195 258.871 318.344C256.574 319.438 254.359 320.23 252.227 320.723C250.094 321.215 248.152 321.461 246.402 321.461C244.324 321.461 242.219 321.105 240.086 320.395C238.008 319.738 236.094 318.672 234.344 317.195C232.648 315.719 231.254 313.832 230.16 311.535C229.066 309.238 228.52 306.504 228.52 303.332C228.52 299.34 229.23 295.977 230.652 293.242C232.074 290.508 233.797 288.129 235.82 286.105C237.133 284.793 238.637 283.535 240.332 282.332C242.027 281.129 244.242 279.98 246.977 278.887C249.766 277.793 253.266 276.754 257.477 275.77C261.742 274.73 267.074 273.719 273.473 272.734V261.824C273.473 260.02 273.281 258.352 272.898 256.82C272.516 255.234 271.832 253.895 270.848 252.801C269.863 251.652 268.551 250.777 266.91 250.176C265.27 249.52 263.219 249.219 260.758 249.273C259.117 249.273 257.531 249.547 256 250.094C254.469 250.641 253.102 251.379 251.898 252.309C250.695 253.238 249.766 254.387 249.109 255.754C248.453 257.066 248.207 258.543 248.371 260.184C248.426 260.512 248.098 260.895 247.387 261.332C246.73 261.77 245.855 262.207 244.762 262.645C243.723 263.082 242.547 263.492 241.234 263.875C239.977 264.258 238.719 264.586 237.461 264.859C236.258 265.133 235.137 265.352 234.098 265.516C233.113 265.625 232.402 265.625 231.965 265.516L230.652 261.906C231.91 259.008 233.879 256.246 236.559 253.621C239.238 250.996 242.301 248.699 245.746 246.73C249.191 244.762 252.883 243.203 256.82 242.055C260.758 240.852 264.641 240.25 268.469 240.25C274.977 240.25 279.898 241.918 283.234 245.254C286.57 248.59 288.238 253.074 288.238 258.707V302.758C288.238 305.055 288.539 306.695 289.141 307.68C289.742 308.664 290.535 309.156 291.52 309.156C292.285 309.156 293.242 309.02 294.391 308.746C295.539 308.473 297.207 307.871 299.395 306.941L300.789 311.453ZM367.809 243.449C368.301 243.777 368.492 244.871 368.383 246.73C368.273 248.535 367.973 250.641 367.48 253.047C367.043 255.453 366.469 257.887 365.758 260.348C365.047 262.754 364.363 264.695 363.707 266.172H359.359C358.758 261.742 357.664 258.434 356.078 256.246C354.492 254.059 352.551 252.965 350.254 252.965C349.105 252.965 347.766 253.375 346.234 254.195C344.758 255.016 343.199 256.355 341.559 258.215C339.918 260.02 338.277 262.398 336.637 265.352C335.051 268.305 333.547 271.941 332.125 276.262V309.648C332.125 310.469 333.191 311.316 335.324 312.191C337.457 313.066 341.094 313.887 346.234 314.652V319H306.121V314.652C309.73 313.832 312.492 313.039 314.406 312.273C316.375 311.453 317.359 310.578 317.359 309.648V263.301C317.359 261.496 317.305 259.992 317.195 258.789C317.086 257.531 316.949 256.52 316.785 255.754C316.621 254.988 316.402 254.387 316.129 253.949C315.91 253.512 315.691 253.156 315.473 252.883C315.09 252.5 314.68 252.199 314.242 251.98C313.805 251.707 313.23 251.488 312.52 251.324C311.809 251.16 310.934 251.051 309.895 250.996C308.91 250.887 307.652 250.777 306.121 250.668V246.566C308.309 246.129 310.359 245.691 312.273 245.254C314.188 244.816 316.02 244.352 317.77 243.859C319.52 243.367 321.215 242.848 322.855 242.301C324.551 241.699 326.219 241.016 327.859 240.25L330.895 243.285L331.961 259.691C333.438 256.957 335.051 254.414 336.801 252.062C338.605 249.711 340.492 247.66 342.461 245.91C344.484 244.16 346.59 242.793 348.777 241.809C351.02 240.77 353.316 240.25 355.668 240.25C357.582 240.25 359.578 240.496 361.656 240.988C363.734 241.48 365.785 242.301 367.809 243.449ZM441.965 284.055C441.965 279.133 441.391 274.676 440.242 270.684C439.148 266.691 437.672 263.301 435.812 260.512C434.008 257.668 431.902 255.508 429.496 254.031C427.09 252.5 424.629 251.734 422.113 251.734C421.129 251.734 419.926 251.98 418.504 252.473C417.137 252.91 415.578 253.73 413.828 254.934C412.078 256.082 410.164 257.641 408.086 259.609C406.008 261.578 403.766 264.066 401.359 267.074V301.117C403.984 302.922 406.336 304.398 408.414 305.547C410.547 306.641 412.488 307.516 414.238 308.172C416.043 308.773 417.684 309.184 419.16 309.402C420.691 309.621 422.168 309.73 423.59 309.73C426.27 309.73 428.73 309.184 430.973 308.09C433.215 306.996 435.156 305.355 436.797 303.168C438.438 300.98 439.695 298.301 440.57 295.129C441.5 291.957 441.965 288.266 441.965 284.055ZM455.5 278.395C455.5 281.73 455.062 285.094 454.188 288.484C453.367 291.875 452.191 295.184 450.66 298.41C449.184 301.582 447.434 304.59 445.41 307.434C443.387 310.223 441.199 312.656 438.848 314.734C436.551 316.812 434.117 318.453 431.547 319.656C429.031 320.859 426.516 321.461 424 321.461C420.773 321.461 417.246 320.641 413.418 319C409.59 317.305 405.57 314.762 401.359 311.371V348.941C401.359 349.816 402.371 350.691 404.395 351.566C406.473 352.441 410.082 353.262 415.223 354.027V358.375H375.355V354.027C378.965 353.152 381.727 352.305 383.641 351.484C385.609 350.719 386.594 349.871 386.594 348.941V261.25C386.594 259.227 386.484 257.559 386.266 256.246C386.102 254.934 385.637 253.895 384.871 253.129C384.105 252.309 382.984 251.734 381.508 251.406C380.031 251.023 377.98 250.777 375.355 250.668V246.566C377.652 246.184 379.73 245.773 381.59 245.336C383.504 244.898 385.309 244.434 387.004 243.941C388.699 243.449 390.367 242.902 392.008 242.301C393.648 241.699 395.344 241.016 397.094 240.25L400.129 243.285L400.867 257.477C403.711 254.414 406.473 251.789 409.152 249.602C411.887 247.414 414.457 245.637 416.863 244.27C419.324 242.848 421.566 241.836 423.59 241.234C425.668 240.578 427.5 240.25 429.086 240.25C432.805 240.25 436.277 241.098 439.504 242.793C442.73 244.434 445.52 246.895 447.871 250.176C450.277 253.402 452.137 257.395 453.449 262.152C454.816 266.855 455.5 272.27 455.5 278.395ZM521.371 295.785C521.371 299.668 520.797 303.004 519.648 305.793C518.555 308.527 517.105 310.852 515.301 312.766C513.551 314.68 511.555 316.211 509.312 317.359C507.125 318.508 504.91 319.383 502.668 319.984C500.48 320.586 498.402 320.969 496.434 321.133C494.52 321.352 492.961 321.461 491.758 321.461C490.281 321.461 488.668 321.324 486.918 321.051C485.168 320.832 483.336 320.477 481.422 319.984C479.562 319.492 477.648 318.863 475.68 318.098C473.711 317.332 471.824 316.457 470.02 315.473C469.637 315.309 469.363 314.406 469.199 312.766C469.09 311.07 469.035 309.129 469.035 306.941C469.09 304.699 469.254 302.402 469.527 300.051C469.801 297.699 470.156 295.785 470.594 294.309L475.105 295.211C475.379 297.727 476.09 300.051 477.238 302.184C478.387 304.262 479.863 306.094 481.668 307.68C483.473 309.211 485.551 310.414 487.902 311.289C490.254 312.164 492.77 312.602 495.449 312.602C499.387 312.602 502.504 311.59 504.801 309.566C507.098 307.488 508.246 304.617 508.246 300.953C508.246 298.766 507.672 296.824 506.523 295.129C505.375 293.434 503.844 291.875 501.93 290.453C500.07 289.031 497.938 287.691 495.531 286.434C493.125 285.176 490.664 283.891 488.148 282.578C485.852 281.43 483.609 280.199 481.422 278.887C479.234 277.52 477.266 276.016 475.516 274.375C473.82 272.68 472.453 270.82 471.414 268.797C470.375 266.719 469.855 264.367 469.855 261.742C469.855 258.352 470.594 255.316 472.07 252.637C473.547 249.957 475.488 247.715 477.895 245.91C480.301 244.051 483.062 242.656 486.18 241.727C489.352 240.742 492.578 240.25 495.859 240.25C497.773 240.25 499.797 240.414 501.93 240.742C504.117 241.016 506.223 241.426 508.246 241.973C510.324 242.52 512.238 243.176 513.988 243.941C515.793 244.707 517.27 245.582 518.418 246.566C518.746 246.84 518.801 247.633 518.582 248.945C518.363 250.203 517.98 251.625 517.434 253.211C516.941 254.742 516.367 256.246 515.711 257.723C515.109 259.145 514.59 260.129 514.152 260.676L510.133 260.02C507.945 255.809 505.457 252.773 502.668 250.914C499.934 249 497.09 248.043 494.137 248.043C492.387 248.043 490.801 248.316 489.379 248.863C488.012 249.41 486.836 250.121 485.852 250.996C484.922 251.816 484.211 252.773 483.719 253.867C483.227 254.961 482.98 256.082 482.98 257.23C482.98 258.98 483.473 260.566 484.457 261.988C485.441 263.355 486.754 264.668 488.395 265.926C490.09 267.129 492.031 268.305 494.219 269.453C496.461 270.602 498.812 271.832 501.273 273.145C503.625 274.348 506.004 275.633 508.41 277C510.816 278.367 512.977 279.953 514.891 281.758C516.805 283.508 518.363 285.531 519.566 287.828C520.77 290.07 521.371 292.723 521.371 295.785Z" fill="#D9E4EC"/>
</svg>
